<?xml version="1.0" standalone="yes"?>

<svg version="1.1" viewBox="0.0 0.0 448.98162729658793 363.9685039370079" fill="none" stroke="none" stroke-linecap="square" stroke-miterlimit="10" xmlns="http://www.w3.org/2000/svg" xmlns:xlink="http://www.w3.org/1999/xlink"><clipPath id="p.0"><path d="m0 0l448.98163 0l0 363.9685l-448.98163 0l0 -363.9685z" clip-rule="nonzero"></path></clipPath><g clip-path="url(#p.0)"><path fill="#000000" fill-opacity="0.0" d="m0 0l448.98163 0l0 363.9685l-448.98163 0z" fill-rule="nonzero"></path><path fill="#cfe2f3" d="m120.79921 88.69029l0 0c0 -7.7058945 6.2468643 -13.952759 13.952759 -13.952759l0 0c3.7005005 0 7.2494354 1.4700165 9.866089 4.08667c2.6166534 2.6166458 4.08667 6.1655807 4.08667 9.866089l0 0c0 7.7058945 -6.246872 13.952751 -13.952759 13.952751l0 0c-7.7058945 0 -13.952759 -6.2468567 -13.952759 -13.952751z" fill-rule="nonzero"></path><path stroke="#000000" stroke-width="2.0" stroke-linejoin="round" stroke-linecap="butt" d="m120.79921 88.69029l0 0c0 -7.7058945 6.2468643 -13.952759 13.952759 -13.952759l0 0c3.7005005 0 7.2494354 1.4700165 9.866089 4.08667c2.6166534 2.6166458 4.08667 6.1655807 4.08667 9.866089l0 0c0 7.7058945 -6.246872 13.952751 -13.952759 13.952751l0 0c-7.7058945 0 -13.952759 -6.2468567 -13.952759 -13.952751z" fill-rule="nonzero"></path><path fill="#cfe2f3" d="m64.637794 153.76903l0 0c0 -7.705887 6.2468643 -13.952759 13.952759 -13.952759l0 0c3.7005005 0 7.2494354 1.4700165 9.866089 4.08667c2.6166458 2.6166534 4.0866623 6.1655884 4.0866623 9.866089l0 0c0 7.705902 -6.2468567 13.952759 -13.952751 13.952759l0 0c-7.7058945 0 -13.952759 -6.2468567 -13.952759 -13.952759z" fill-rule="nonzero"></path><path stroke="#000000" stroke-width="2.0" stroke-linejoin="round" stroke-linecap="butt" d="m64.637794 153.76903l0 0c0 -7.705887 6.2468643 -13.952759 13.952759 -13.952759l0 0c3.7005005 0 7.2494354 1.4700165 9.866089 4.08667c2.6166458 2.6166534 4.0866623 6.1655884 4.0866623 9.866089l0 0c0 7.705902 -6.2468567 13.952759 -13.952751 13.952759l0 0c-7.7058945 0 -13.952759 -6.2468567 -13.952759 -13.952759z" fill-rule="nonzero"></path><path fill="#cfe2f3" d="m120.79921 215.95013l0 0c0 -7.705902 6.2468643 -13.952759 13.952759 -13.952759l0 0c3.7005005 0 7.2494354 1.4700165 9.866089 4.08667c2.6166534 2.6166534 4.08667 6.1655884 4.08667 9.866089l0 0c0 7.705887 -6.246872 13.952759 -13.952759 13.952759l0 0c-7.7058945 0 -13.952759 -6.246872 -13.952759 -13.952759z" fill-rule="nonzero"></path><path stroke="#000000" stroke-width="2.0" stroke-linejoin="round" stroke-linecap="butt" d="m120.79921 215.95013l0 0c0 -7.705902 6.2468643 -13.952759 13.952759 -13.952759l0 0c3.7005005 0 7.2494354 1.4700165 9.866089 4.08667c2.6166534 2.6166534 4.08667 6.1655884 4.08667 9.866089l0 0c0 7.705887 -6.246872 13.952759 -13.952759 13.952759l0 0c-7.7058945 0 -13.952759 -6.246872 -13.952759 -13.952759z" fill-rule="nonzero"></path><path fill="#000000" fill-opacity="0.0" d="m134.75197 102.64304l-56.15748 37.16535" fill-rule="nonzero"></path><path stroke="#000000" stroke-width="2.0" stroke-linejoin="round" stroke-linecap="butt" d="m134.75197 102.64304l-56.15748 37.16535" fill-rule="nonzero"></path><path fill="#000000" fill-opacity="0.0" d="m162.26509 164.82414l-27.527557 37.16536" fill-rule="nonzero"></path><path stroke="#000000" stroke-width="2.0" stroke-linejoin="round" stroke-linecap="butt" d="m162.26509 164.82414l-27.527557 37.16536" fill-rule="nonzero"></path><path fill="#000000" fill-opacity="0.0" d="m134.75197 102.64304l27.527557 37.16535" fill-rule="nonzero"></path><path stroke="#000000" stroke-width="2.0" stroke-linejoin="round" stroke-linecap="butt" d="m134.75197 102.64304l27.527557 37.16535" fill-rule="nonzero"></path><path fill="#000000" fill-opacity="0.0" d="m142.54593 304.042l155.65353 0l0 49.606293l-155.65353 0z" fill-rule="nonzero"></path><path fill="#000000" d="m159.23343 327.35263l1.640625 0.21875q-0.265625 1.6875 -1.375 2.65625q-1.109375 0.953125 -2.734375 0.953125q-2.015625 0 -3.25 -1.3125q-1.21875 -1.328125 -1.21875 -3.796875q0 -1.59375 0.515625 -2.78125q0.53125 -1.203125 1.609375 -1.796875q1.09375 -0.609375 2.359375 -0.609375q1.609375 0 2.625 0.8125q1.015625 0.8125 1.3125 2.3125l-1.625 0.25q-0.234375 -1.0 -0.828125 -1.5q-0.59375 -0.5 -1.421875 -0.5q-1.265625 0 -2.0625 0.90625q-0.78125 0.90625 -0.78125 2.859375q0 1.984375 0.765625 2.890625q0.765625 0.890625 1.984375 0.890625q0.984375 0 1.640625 -0.59375q0.65625 -0.609375 0.84375 -1.859375zm2.265625 -1.3125q0 -2.734375 1.53125 -4.0625q1.265625 -1.09375 3.09375 -1.09375q2.03125 0 3.3125 1.34375q1.296875 1.328125 1.296875 3.671875q0 1.90625 -0.578125 3.0q-0.5625 1.078125 -1.65625 1.6875q-1.078125 0.59375 -2.375 0.59375q-2.0625 0 -3.34375 -1.328125q-1.28125 -1.328125 -1.28125 -3.8125zm1.71875 0q0 1.890625 0.828125 2.828125q0.828125 0.9375 2.078125 0.9375q1.25 0 2.0625 -0.9375q0.828125 -0.953125 0.828125 -2.890625q0 -1.828125 -0.828125 -2.765625q-0.828125 -0.9375 -2.0625 -0.9375q-1.25 0 -2.078125 0.9375q-0.828125 0.9375 -0.828125 2.828125zm9.281967 4.921875l0 -9.859375l1.5 0l0 1.390625q0.453125 -0.71875 1.21875 -1.15625q0.78125 -0.453125 1.765625 -0.453125q1.09375 0 1.796875 0.453125q0.703125 0.453125 0.984375 1.28125q1.171875 -1.734375 3.046875 -1.734375q1.46875 0 2.25 0.8125q0.796875 0.8125 0.796875 2.5l0 6.765625l-1.671875 0l0 -6.203125q0 -1.0 -0.15625 -1.4375q-0.15625 -0.453125 -0.59375 -0.71875q-0.421875 -0.265625 -1.0 -0.265625q-1.03125 0 -1.71875 0.6875q-0.6875 0.6875 -0.6875 2.21875l0 5.71875l-1.671875 0l0 -6.40625q0 -1.109375 -0.40625 -1.65625q-0.40625 -0.5625 -1.34375 -0.5625q-0.703125 0 -1.3125 0.375q-0.59375 0.359375 -0.859375 1.078125q-0.265625 0.71875 -0.265625 2.0625l0 5.109375l-1.671875 0zm15.540802 3.78125l0 -13.640625l1.53125 0l0 1.28125q0.53125 -0.75 1.203125 -1.125q0.6875 -0.375 1.640625 -0.375q1.265625 0 2.234375 0.65625q0.96875 0.640625 1.453125 1.828125q0.5 1.1875 0.5 2.59375q0 1.515625 -0.546875 2.734375q-0.546875 1.203125 -1.578125 1.84375q-1.03125 0.640625 -2.171875 0.640625q-0.84375 0 -1.515625 -0.34375q-0.65625 -0.359375 -1.078125 -0.890625l0 4.796875l-1.671875 0zm1.515625 -8.65625q0 1.90625 0.765625 2.8125q0.78125 0.90625 1.875 0.90625q1.109375 0 1.890625 -0.9375q0.796875 -0.9375 0.796875 -2.921875q0 -1.875 -0.78125 -2.8125q-0.765625 -0.9375 -1.84375 -0.9375q-1.0625 0 -1.890625 1.0q-0.8125 1.0 -0.8125 2.890625zm8.235092 -0.046875q0 -2.734375 1.53125 -4.0625q1.265625 -1.09375 3.09375 -1.09375q2.03125 0 3.3125 1.34375q1.296875 1.328125 1.296875 3.671875q0 1.90625 -0.578125 3.0q-0.5625 1.078125 -1.65625 1.6875q-1.078125 0.59375 -2.375 0.59375q-2.0625 0 -3.34375 -1.328125q-1.28125 -1.328125 -1.28125 -3.8125zm1.71875 0q0 1.890625 0.828125 2.828125q0.828125 0.9375 2.078125 0.9375q1.25 0 2.0625 -0.9375q0.828125 -0.953125 0.828125 -2.890625q0 -1.828125 -0.828125 -2.765625q-0.828125 -0.9375 -2.0625 -0.9375q-1.25 0 -2.078125 0.9375q-0.828125 0.9375 -0.828125 2.828125zm9.281967 4.921875l0 -9.859375l1.5 0l0 1.40625q1.09375 -1.625 3.140625 -1.625q0.890625 0 1.640625 0.328125q0.75 0.3125 1.109375 0.84375q0.375 0.515625 0.53125 1.21875q0.09375 0.46875 0.09375 1.625l0 6.0625l-1.671875 0l0 -6.0q0 -1.015625 -0.203125 -1.515625q-0.1875 -0.515625 -0.6875 -0.8125q-0.5 -0.296875 -1.171875 -0.296875q-1.0625 0 -1.84375 0.671875q-0.765625 0.671875 -0.765625 2.578125l0 5.375l-1.671875 0zm17.125717 -3.171875l1.71875 0.21875q-0.40625 1.5 -1.515625 2.34375q-1.09375 0.828125 -2.8125 0.828125q-2.15625 0 -3.421875 -1.328125q-1.265625 -1.328125 -1.265625 -3.734375q0 -2.484375 1.265625 -3.859375q1.28125 -1.375 3.328125 -1.375q1.984375 0 3.234375 1.34375q1.25 1.34375 1.25 3.796875q0 0.140625 -0.015625 0.4375l-7.34375 0q0.09375 1.625 0.921875 2.484375q0.828125 0.859375 2.0625 0.859375q0.90625 0 1.546875 -0.46875q0.65625 -0.484375 1.046875 -1.546875zm-5.484375 -2.703125l5.5 0q-0.109375 -1.234375 -0.625 -1.859375q-0.796875 -0.96875 -2.078125 -0.96875q-1.140625 0 -1.9375 0.78125q-0.78125 0.765625 -0.859375 2.046875zm9.110092 5.875l0 -9.859375l1.5 0l0 1.40625q1.09375 -1.625 3.140625 -1.625q0.890625 0 1.640625 0.328125q0.75 0.3125 1.109375 0.84375q0.375 0.515625 0.53125 1.21875q0.09375 0.46875 0.09375 1.625l0 6.0625l-1.671875 0l0 -6.0q0 -1.015625 -0.203125 -1.515625q-0.1875 -0.515625 -0.6875 -0.8125q-0.5 -0.296875 -1.171875 -0.296875q-1.0625 0 -1.84375 0.671875q-0.765625 0.671875 -0.765625 2.578125l0 5.375l-1.671875 0zm14.031967 -1.5l0.234375 1.484375q-0.703125 0.140625 -1.265625 0.140625q-0.90625 0 -1.40625 -0.28125q-0.5 -0.296875 -0.703125 -0.75q-0.203125 -0.46875 -0.203125 -1.984375l0 -5.65625l-1.234375 0l0 -1.3125l1.234375 0l0 -2.4375l1.65625 -1.0l0 3.4375l1.6875 0l0 1.3125l-1.6875 0l0 5.75q0 0.71875 0.078125 0.921875q0.09375 0.203125 0.296875 0.328125q0.203125 0.125 0.578125 0.125q0.265625 0 0.734375 -0.078125zm13.100983 1.5l0 -1.25q-0.9375 1.46875 -2.75 1.46875q-1.171875 0 -2.171875 -0.640625q-0.984375 -0.65625 -1.53125 -1.8125q-0.53125 -1.171875 -0.53125 -2.6875q0 -1.46875 0.484375 -2.671875q0.5 -1.203125 1.46875 -1.84375q0.984375 -0.640625 2.203125 -0.640625q0.890625 0 1.578125 0.375q0.703125 0.375 1.140625 0.984375l0 -4.875l1.65625 0l0 13.59375l-1.546875 0zm-5.28125 -4.921875q0 1.890625 0.796875 2.828125q0.8125 0.9375 1.890625 0.9375q1.09375 0 1.859375 -0.890625q0.765625 -0.890625 0.765625 -2.734375q0 -2.015625 -0.78125 -2.953125q-0.78125 -0.953125 -1.921875 -0.953125q-1.109375 0 -1.859375 0.90625q-0.75 0.90625 -0.75 2.859375zm9.281982 -6.765625l0 -1.90625l1.671875 0l0 1.90625l-1.671875 0zm0 11.6875l0 -9.859375l1.671875 0l0 9.859375l-1.671875 0zm4.535431 0l0 -8.546875l-1.484375 0l0 -1.3125l1.484375 0l0 -1.046875q0 -0.984375 0.171875 -1.46875q0.234375 -0.65625 0.84375 -1.046875q0.609375 -0.40625 1.703125 -0.40625q0.703125 0 1.5625 0.15625l-0.25 1.46875q-0.515625 -0.09375 -0.984375 -0.09375q-0.765625 0 -1.078125 0.328125q-0.3125 0.3125 -0.3125 1.203125l0 0.90625l1.921875 0l0 1.3125l-1.921875 0l0 8.546875l-1.65625 0zm5.183319 0l0 -8.546875l-1.484375 0l0 -1.3125l1.484375 0l0 -1.046875q0 -0.984375 0.171875 -1.46875q0.234375 -0.65625 0.84375 -1.046875q0.609375 -0.40625 1.703125 -0.40625q0.703125 0 1.5625 0.15625l-0.25 1.46875q-0.515625 -0.09375 -0.984375 -0.09375q-0.765625 0 -1.078125 0.328125q-0.3125 0.3125 -0.3125 1.203125l0 0.90625l1.921875 0l0 1.3125l-1.921875 0l0 8.546875l-1.65625 0z" fill-rule="nonzero"></path><path fill="#cfe2f3" d="m148.31233 164.82414l13.952759 -25.007874l13.952759 25.007874z" fill-rule="nonzero"></path><path stroke="#000000" stroke-width="2.0" stroke-linejoin="round" stroke-linecap="butt" d="m148.31233 164.82414l13.952759 -25.007874l13.952759 25.007874z" fill-rule="nonzero"></path><path fill="#cfe2f3" d="m162.26378 215.95013l0 0c0 -7.705902 6.2468567 -13.952759 13.952759 -13.952759l0 0c3.7005005 0 7.2494354 1.4700165 9.866089 4.08667c2.6166534 2.6166534 4.08667 6.1655884 4.08667 9.866089l0 0c0 7.705887 -6.246872 13.952759 -13.952759 13.952759l0 0c-7.705902 0 -13.952759 -6.246872 -13.952759 -13.952759z" fill-rule="nonzero"></path><path stroke="#000000" stroke-width="2.0" stroke-linejoin="round" stroke-linecap="butt" d="m162.26378 215.95013l0 0c0 -7.705902 6.2468567 -13.952759 13.952759 -13.952759l0 0c3.7005005 0 7.2494354 1.4700165 9.866089 4.08667c2.6166534 2.6166534 4.08667 6.1655884 4.08667 9.866089l0 0c0 7.705887 -6.246872 13.952759 -13.952759 13.952759l0 0c-7.705902 0 -13.952759 -6.246872 -13.952759 -13.952759z" fill-rule="nonzero"></path><path fill="#000000" fill-opacity="0.0" d="m162.26509 164.82414l13.952759 37.16536" fill-rule="nonzero"></path><path stroke="#000000" stroke-width="2.0" stroke-linejoin="round" stroke-linecap="butt" d="m162.26509 164.82414l13.952759 37.16536" fill-rule="nonzero"></path><path fill="#cfe2f3" d="m106.47507 152.3202l13.952751 -13.952759l13.952766 13.952759l-13.952766 13.952759z" fill-rule="nonzero"></path><path stroke="#000000" stroke-width="2.0" stroke-linejoin="round" stroke-linecap="butt" d="m106.47507 152.3202l13.952751 -13.952759l13.952766 13.952759l-13.952766 13.952759z" fill-rule="nonzero"></path><path fill="#000000" fill-opacity="0.0" d="m134.75197 102.64304l-14.330711 35.71653" fill-rule="nonzero"></path><path stroke="#000000" stroke-width="2.0" stroke-linejoin="round" stroke-linecap="butt" d="m134.75197 102.64304l-14.330711 35.71653" fill-rule="nonzero"></path><path fill="#cfe2f3" d="m79.3189 215.94226l0 0c0 -7.705902 6.2468567 -13.952759 13.952751 -13.952759l0 0c3.7005005 0 7.249443 1.4700165 9.866089 4.08667c2.6166534 2.6166534 4.08667 6.1655884 4.08667 9.866089l0 0c0 7.705887 -6.2468643 13.952759 -13.952759 13.952759l0 0c-7.7058945 0 -13.952751 -6.246872 -13.952751 -13.952759z" fill-rule="nonzero"></path><path stroke="#000000" stroke-width="2.0" stroke-linejoin="round" stroke-linecap="butt" d="m79.3189 215.94226l0 0c0 -7.705902 6.2468567 -13.952759 13.952751 -13.952759l0 0c3.7005005 0 7.249443 1.4700165 9.866089 4.08667c2.6166534 2.6166534 4.08667 6.1655884 4.08667 9.866089l0 0c0 7.705887 -6.2468643 13.952759 -13.952759 13.952759l0 0c-7.7058945 0 -13.952751 -6.246872 -13.952751 -13.952759z" fill-rule="nonzero"></path><path fill="#000000" fill-opacity="0.0" d="m120.79921 164.82414l-27.527557 37.16536" fill-rule="nonzero"></path><path stroke="#000000" stroke-width="2.0" stroke-linejoin="round" stroke-linecap="butt" d="m120.79921 164.82414l-27.527557 37.16536" fill-rule="nonzero"></path><path fill="#cfe2f3" d="m284.2454 88.69029l0 0c0 -7.7058945 6.246887 -13.952759 13.952759 -13.952759l0 0c3.7005005 0 7.2494507 1.4700165 9.866089 4.08667c2.6166687 2.6166458 4.08667 6.1655807 4.08667 9.866089l0 0c0 7.7058945 -6.2468567 13.952751 -13.952759 13.952751l0 0c-7.7058716 0 -13.952759 -6.2468567 -13.952759 -13.952751z" fill-rule="nonzero"></path><path stroke="#000000" stroke-width="2.0" stroke-linejoin="round" stroke-linecap="butt" d="m284.2454 88.69029l0 0c0 -7.7058945 6.246887 -13.952759 13.952759 -13.952759l0 0c3.7005005 0 7.2494507 1.4700165 9.866089 4.08667c2.6166687 2.6166458 4.08667 6.1655807 4.08667 9.866089l0 0c0 7.7058945 -6.2468567 13.952751 -13.952759 13.952751l0 0c-7.7058716 0 -13.952759 -6.2468567 -13.952759 -13.952751z" fill-rule="nonzero"></path><path fill="#cfe2f3" d="m228.08398 153.76903l0 0c0 -7.705887 6.246872 -13.952759 13.952759 -13.952759l0 0c3.7005005 0 7.2494354 1.4700165 9.866089 4.08667c2.6166534 2.6166534 4.08667 6.1655884 4.08667 9.866089l0 0c0 7.705902 -6.2468567 13.952759 -13.952759 13.952759l0 0c-7.705887 0 -13.952759 -6.2468567 -13.952759 -13.952759z" fill-rule="nonzero"></path><path stroke="#000000" stroke-width="2.0" stroke-linejoin="round" stroke-linecap="butt" d="m228.08398 153.76903l0 0c0 -7.705887 6.246872 -13.952759 13.952759 -13.952759l0 0c3.7005005 0 7.2494354 1.4700165 9.866089 4.08667c2.6166534 2.6166534 4.08667 6.1655884 4.08667 9.866089l0 0c0 7.705902 -6.2468567 13.952759 -13.952759 13.952759l0 0c-7.705887 0 -13.952759 -6.2468567 -13.952759 -13.952759z" fill-rule="nonzero"></path><path fill="#cfe2f3" d="m284.2454 215.95013l0 0c0 -7.705902 6.246887 -13.952759 13.952759 -13.952759l0 0c3.7005005 0 7.2494507 1.4700165 9.866089 4.08667c2.6166687 2.6166534 4.08667 6.1655884 4.08667 9.866089l0 0c0 7.705887 -6.2468567 13.952759 -13.952759 13.952759l0 0c-7.7058716 0 -13.952759 -6.246872 -13.952759 -13.952759z" fill-rule="nonzero"></path><path stroke="#000000" stroke-width="2.0" stroke-linejoin="round" stroke-linecap="butt" d="m284.2454 215.95013l0 0c0 -7.705902 6.246887 -13.952759 13.952759 -13.952759l0 0c3.7005005 0 7.2494507 1.4700165 9.866089 4.08667c2.6166687 2.6166534 4.08667 6.1655884 4.08667 9.866089l0 0c0 7.705887 -6.2468567 13.952759 -13.952759 13.952759l0 0c-7.7058716 0 -13.952759 -6.246872 -13.952759 -13.952759z" fill-rule="nonzero"></path><path fill="#000000" fill-opacity="0.0" d="m298.19815 102.64304l-56.15747 37.16535" fill-rule="nonzero"></path><path stroke="#000000" stroke-width="2.0" stroke-linejoin="round" stroke-linecap="butt" d="m298.19815 102.64304l-56.15747 37.16535" fill-rule="nonzero"></path><path fill="#000000" fill-opacity="0.0" d="m325.7257 164.83202l-27.527557 37.16536" fill-rule="nonzero"></path><path stroke="#000000" stroke-width="2.0" stroke-linejoin="round" stroke-linecap="butt" d="m325.7257 164.83202l-27.527557 37.16536" fill-rule="nonzero"></path><path fill="#000000" fill-opacity="0.0" d="m298.19815 102.64304l27.527557 37.16535" fill-rule="nonzero"></path><path stroke="#000000" stroke-width="2.0" stroke-linejoin="round" stroke-linecap="butt" d="m298.19815 102.64304l27.527557 37.16535" fill-rule="nonzero"></path><path fill="#cfe2f3" d="m325.70996 215.95013l0 0c0 -7.705902 6.246887 -13.952759 13.952759 -13.952759l0 0c3.7005005 0 7.2494507 1.4700165 9.866089 4.08667c2.6166687 2.6166534 4.08667 6.1655884 4.08667 9.866089l0 0c0 7.705887 -6.2468567 13.952759 -13.952759 13.952759l0 0c-7.7058716 0 -13.952759 -6.246872 -13.952759 -13.952759z" fill-rule="nonzero"></path><path stroke="#000000" stroke-width="2.0" stroke-linejoin="round" stroke-linecap="butt" d="m325.70996 215.95013l0 0c0 -7.705902 6.246887 -13.952759 13.952759 -13.952759l0 0c3.7005005 0 7.2494507 1.4700165 9.866089 4.08667c2.6166687 2.6166534 4.08667 6.1655884 4.08667 9.866089l0 0c0 7.705887 -6.2468567 13.952759 -13.952759 13.952759l0 0c-7.7058716 0 -13.952759 -6.246872 -13.952759 -13.952759z" fill-rule="nonzero"></path><path fill="#000000" fill-opacity="0.0" d="m325.70996 164.83202l13.952759 37.16536" fill-rule="nonzero"></path><path stroke="#000000" stroke-width="2.0" stroke-linejoin="round" stroke-linecap="butt" d="m325.70996 164.83202l13.952759 37.16536" fill-rule="nonzero"></path><path fill="#cfe2f3" d="m269.92126 152.3202l13.952759 -13.952759l13.952759 13.952759l-13.952759 13.952759z" fill-rule="nonzero"></path><path stroke="#000000" stroke-width="2.0" stroke-linejoin="round" stroke-linecap="butt" d="m269.92126 152.3202l13.952759 -13.952759l13.952759 13.952759l-13.952759 13.952759z" fill-rule="nonzero"></path><path fill="#000000" fill-opacity="0.0" d="m298.19815 102.64304l-14.330688 35.71653" fill-rule="nonzero"></path><path stroke="#000000" stroke-width="2.0" stroke-linejoin="round" stroke-linecap="butt" d="m298.19815 102.64304l-14.330688 35.71653" fill-rule="nonzero"></path><path fill="#cfe2f3" d="m242.76509 215.94226l0 0c0 -7.705902 6.2468567 -13.952759 13.952744 -13.952759l0 0c3.7005005 0 7.2494507 1.4700165 9.866089 4.08667c2.6166687 2.6166534 4.08667 6.1655884 4.08667 9.866089l0 0c0 7.705887 -6.2468567 13.952759 -13.952759 13.952759l0 0c-7.705887 0 -13.952744 -6.246872 -13.952744 -13.952759z" fill-rule="nonzero"></path><path stroke="#000000" stroke-width="2.0" stroke-linejoin="round" stroke-linecap="butt" d="m242.76509 215.94226l0 0c0 -7.705902 6.2468567 -13.952759 13.952744 -13.952759l0 0c3.7005005 0 7.2494507 1.4700165 9.866089 4.08667c2.6166687 2.6166534 4.08667 6.1655884 4.08667 9.866089l0 0c0 7.705887 -6.2468567 13.952759 -13.952759 13.952759l0 0c-7.705887 0 -13.952744 -6.246872 -13.952744 -13.952759z" fill-rule="nonzero"></path><path fill="#000000" fill-opacity="0.0" d="m284.2454 164.82414l-27.527557 37.16536" fill-rule="nonzero"></path><path stroke="#000000" stroke-width="2.0" stroke-linejoin="round" stroke-linecap="butt" d="m284.2454 164.82414l-27.527557 37.16536" fill-rule="nonzero"></path><path fill="#cfe2f3" d="m57.849083 278.12335l0 0c0 -7.7058716 6.2468567 -13.952759 13.952751 -13.952759l0 0c3.7005005 0 7.249443 1.4700317 9.866089 4.08667c2.6166534 2.6166687 4.08667 6.1655884 4.08667 9.866089l0 0c0 7.705902 -6.2468643 13.952759 -13.952759 13.952759l0 0c-7.7058945 0 -13.952751 -6.2468567 -13.952751 -13.952759z" fill-rule="nonzero"></path><path stroke="#000000" stroke-width="2.0" stroke-linejoin="round" stroke-linecap="butt" d="m57.849083 278.12335l0 0c0 -7.7058716 6.2468567 -13.952759 13.952751 -13.952759l0 0c3.7005005 0 7.249443 1.4700317 9.866089 4.08667c2.6166534 2.6166687 4.08667 6.1655884 4.08667 9.866089l0 0c0 7.705902 -6.2468643 13.952759 -13.952759 13.952759l0 0c-7.7058945 0 -13.952751 -6.2468567 -13.952751 -13.952759z" fill-rule="nonzero"></path><path fill="#000000" fill-opacity="0.0" d="m93.27165 229.89502l-21.480316 34.2677" fill-rule="nonzero"></path><path stroke="#000000" stroke-width="2.0" stroke-linejoin="round" stroke-linecap="butt" d="m93.27165 229.89502l-21.480316 34.2677" fill-rule="nonzero"></path><path fill="#cfe2f3" d="m221.29527 278.12335l0 0c0 -7.7058716 6.246872 -13.952759 13.952759 -13.952759l0 0c3.7005005 0 7.2494354 1.4700317 9.866089 4.08667c2.6166534 2.6166687 4.08667 6.1655884 4.08667 9.866089l0 0c0 7.705902 -6.246872 13.952759 -13.952759 13.952759l0 0c-7.705887 0 -13.952759 -6.2468567 -13.952759 -13.952759z" fill-rule="nonzero"></path><path stroke="#000000" stroke-width="2.0" stroke-linejoin="round" stroke-linecap="butt" d="m221.29527 278.12335l0 0c0 -7.7058716 6.246872 -13.952759 13.952759 -13.952759l0 0c3.7005005 0 7.2494354 1.4700317 9.866089 4.08667c2.6166534 2.6166687 4.08667 6.1655884 4.08667 9.866089l0 0c0 7.705902 -6.246872 13.952759 -13.952759 13.952759l0 0c-7.705887 0 -13.952759 -6.2468567 -13.952759 -13.952759z" fill-rule="nonzero"></path><path fill="#000000" fill-opacity="0.0" d="m256.71783 229.89502l-21.4803 34.2677" fill-rule="nonzero"></path><path stroke="#000000" stroke-width="2.0" stroke-linejoin="round" stroke-linecap="butt" d="m256.71783 229.89502l-21.4803 34.2677" fill-rule="nonzero"></path><path fill="#cfe2f3" d="m311.75854 149.36841l13.952728 -9.552139l13.952728 9.552139l-5.329468 15.455673l-17.246521 0z" fill-rule="nonzero"></path><path stroke="#000000" stroke-width="2.0" stroke-linejoin="round" stroke-linecap="butt" d="m311.75854 149.36841l13.952728 -9.552139l13.952728 9.552139l-5.329468 15.455673l-17.246521 0z" fill-rule="nonzero"></path><path fill="#000000" fill-opacity="0.0" d="m120.42782 138.36745l0 -15.496056l163.43307 0l0 15.559059" fill-rule="nonzero"></path><path stroke="#93c47d" stroke-width="2.0" stroke-linejoin="round" stroke-linecap="butt" d="m120.42782 138.36745l0 -15.496056l163.43307 0l0 15.559059" fill-rule="nonzero"></path><path fill="#000000" fill-opacity="0.0" d="m134.75197 74.73753l0 -25.0l163.43306 0l0 25.062988" fill-rule="nonzero"></path><path stroke="#93c47d" stroke-width="2.0" stroke-linejoin="round" stroke-linecap="butt" d="m134.75197 74.73753l0 -25.0l163.43306 0l0 25.062988" fill-rule="nonzero"></path><path fill="#000000" fill-opacity="0.0" d="m78.59055 139.81627l0 -24.999992l163.43307 0l0 25.062996" fill-rule="nonzero"></path><path stroke="#93c47d" stroke-width="2.0" stroke-linejoin="round" stroke-linecap="butt" d="m78.59055 139.81627l0 -24.999992l163.43307 0l0 25.062996" fill-rule="nonzero"></path><path fill="#000000" fill-opacity="0.0" d="m93.27165 201.9895l0 -25.0l163.43306 0l0 25.062988" fill-rule="nonzero"></path><path stroke="#93c47d" stroke-width="2.0" stroke-linejoin="round" stroke-linecap="butt" d="m93.27165 201.9895l0 -25.0l163.43306 0l0 25.062988" fill-rule="nonzero"></path><path fill="#000000" fill-opacity="0.0" d="m71.801834 264.1706l0 -24.999985l163.43307 0l0 25.062973" fill-rule="nonzero"></path><path stroke="#93c47d" stroke-width="2.0" stroke-linejoin="round" stroke-linecap="butt" d="m71.801834 264.1706l0 -24.999985l163.43307 0l0 25.062973" fill-rule="nonzero"></path><path fill="#000000" fill-opacity="0.0" d="m162.26509 139.81627l0 -8.973755l163.43306 0l0 9.036758" fill-rule="nonzero"></path><path stroke="#f6b26b" stroke-width="2.0" stroke-linejoin="round" stroke-linecap="butt" d="m162.26509 139.81627l0 -8.973755l163.43306 0l0 9.036758" fill-rule="nonzero"></path><path fill="#000000" fill-opacity="0.0" d="m116.22835 186.50131l82.3622 0l0 49.606293l-82.3622 0z" fill-rule="nonzero"></path><path stroke="#ff0000" stroke-width="2.0" stroke-linejoin="round" stroke-linecap="butt" stroke-dasharray="8.0,6.0" d="m116.22835 186.50131l82.3622 0l0 49.606293l-82.3622 0z" fill-rule="nonzero"></path><path fill="#000000" fill-opacity="0.0" d="m278.34647 186.50131l82.36218 0l0 49.606293l-82.36218 0z" fill-rule="nonzero"></path><path stroke="#ff0000" stroke-width="2.0" stroke-linejoin="round" stroke-linecap="butt" stroke-dasharray="8.0,6.0" d="m278.34647 186.50131l82.36218 0l0 49.606293l-82.36218 0z" fill-rule="nonzero"></path></g></svg>

