<?xml version="1.0" standalone="yes"?>

<svg version="1.1" viewBox="0.0 0.0 933.8293963254594 400.8031496062992" fill="none" stroke="none" stroke-linecap="square" stroke-miterlimit="10" xmlns="http://www.w3.org/2000/svg" xmlns:xlink="http://www.w3.org/1999/xlink"><clipPath id="p.0"><path d="m0 0l933.8294 0l0 400.80316l-933.8294 0l0 -400.80316z" clip-rule="nonzero"></path></clipPath><g clip-path="url(#p.0)"><path fill="#000000" fill-opacity="0.0" d="m0 0l933.8294 0l0 400.80316l-933.8294 0z" fill-rule="nonzero"></path><path fill="#cfe2f3" d="m123.06036 159.6063l0 0c0 -7.705887 6.246872 -13.952744 13.952759 -13.952744l0 0c3.7005005 0 7.2494354 1.4700165 9.866089 4.0866547c2.6166534 2.6166534 4.08667 6.1655884 4.08667 9.866089l0 0c0 7.705902 -6.2468567 13.952759 -13.952759 13.952759l0 0c-7.705887 0 -13.952759 -6.2468567 -13.952759 -13.952759z" fill-rule="nonzero"></path><path stroke="#000000" stroke-width="2.0" stroke-linejoin="round" stroke-linecap="butt" d="m123.06036 159.6063l0 0c0 -7.705887 6.246872 -13.952744 13.952759 -13.952744l0 0c3.7005005 0 7.2494354 1.4700165 9.866089 4.0866547c2.6166534 2.6166534 4.08667 6.1655884 4.08667 9.866089l0 0c0 7.705902 -6.2468567 13.952759 -13.952759 13.952759l0 0c-7.705887 0 -13.952759 -6.2468567 -13.952759 -13.952759z" fill-rule="nonzero"></path><path fill="#cfe2f3" d="m66.89895 224.68504l0 0c0 -7.705902 6.2468643 -13.952759 13.952759 -13.952759l0 0c3.7005005 0 7.2494354 1.4700165 9.866089 4.08667c2.6166458 2.6166534 4.0866623 6.1655884 4.0866623 9.866089l0 0c0 7.705887 -6.2468567 13.952759 -13.952751 13.952759l0 0c-7.7058945 0 -13.952759 -6.246872 -13.952759 -13.952759z" fill-rule="nonzero"></path><path stroke="#000000" stroke-width="2.0" stroke-linejoin="round" stroke-linecap="butt" d="m66.89895 224.68504l0 0c0 -7.705902 6.2468643 -13.952759 13.952759 -13.952759l0 0c3.7005005 0 7.2494354 1.4700165 9.866089 4.08667c2.6166458 2.6166534 4.0866623 6.1655884 4.0866623 9.866089l0 0c0 7.705887 -6.2468567 13.952759 -13.952751 13.952759l0 0c-7.7058945 0 -13.952759 -6.246872 -13.952759 -13.952759z" fill-rule="nonzero"></path><path fill="#cfe2f3" d="m108.73753 224.68504l0 0c0 -7.705902 6.2468643 -13.952759 13.952759 -13.952759l0 0c3.7005005 0 7.2494354 1.4700165 9.866089 4.08667c2.6166382 2.6166534 4.08667 6.1655884 4.08667 9.866089l0 0c0 7.705887 -6.246872 13.952759 -13.952759 13.952759l0 0c-7.7058945 0 -13.952759 -6.246872 -13.952759 -13.952759z" fill-rule="nonzero"></path><path stroke="#000000" stroke-width="2.0" stroke-linejoin="round" stroke-linecap="butt" d="m108.73753 224.68504l0 0c0 -7.705902 6.2468643 -13.952759 13.952759 -13.952759l0 0c3.7005005 0 7.2494354 1.4700165 9.866089 4.08667c2.6166382 2.6166534 4.08667 6.1655884 4.08667 9.866089l0 0c0 7.705887 -6.246872 13.952759 -13.952759 13.952759l0 0c-7.7058945 0 -13.952759 -6.246872 -13.952759 -13.952759z" fill-rule="nonzero"></path><path fill="#cfe2f3" d="m150.57349 224.68504l0 0c0 -7.705902 6.246872 -13.952759 13.952759 -13.952759l0 0c3.7005005 0 7.2494354 1.4700165 9.866089 4.08667c2.6166534 2.6166534 4.08667 6.1655884 4.08667 9.866089l0 0c0 7.705887 -6.2468567 13.952759 -13.952759 13.952759l0 0c-7.705887 0 -13.952759 -6.246872 -13.952759 -13.952759z" fill-rule="nonzero"></path><path stroke="#000000" stroke-width="2.0" stroke-linejoin="round" stroke-linecap="butt" d="m150.57349 224.68504l0 0c0 -7.705902 6.246872 -13.952759 13.952759 -13.952759l0 0c3.7005005 0 7.2494354 1.4700165 9.866089 4.08667c2.6166534 2.6166534 4.08667 6.1655884 4.08667 9.866089l0 0c0 7.705887 -6.2468567 13.952759 -13.952759 13.952759l0 0c-7.705887 0 -13.952759 -6.246872 -13.952759 -13.952759z" fill-rule="nonzero"></path><path fill="#cfe2f3" d="m192.40814 224.68504l0 0c0 -7.705902 6.2468567 -13.952759 13.952744 -13.952759l0 0c3.7005005 0 7.2494507 1.4700165 9.866089 4.08667c2.6166534 2.6166534 4.08667 6.1655884 4.08667 9.866089l0 0c0 7.705887 -6.2468567 13.952759 -13.952759 13.952759l0 0c-7.705887 0 -13.952744 -6.246872 -13.952744 -13.952759z" fill-rule="nonzero"></path><path stroke="#000000" stroke-width="2.0" stroke-linejoin="round" stroke-linecap="butt" d="m192.40814 224.68504l0 0c0 -7.705902 6.2468567 -13.952759 13.952744 -13.952759l0 0c3.7005005 0 7.2494507 1.4700165 9.866089 4.08667c2.6166534 2.6166534 4.08667 6.1655884 4.08667 9.866089l0 0c0 7.705887 -6.2468567 13.952759 -13.952759 13.952759l0 0c-7.705887 0 -13.952744 -6.246872 -13.952744 -13.952759z" fill-rule="nonzero"></path><path fill="#000000" fill-opacity="0.0" d="m137.01312 173.55905l-56.15748 37.16536" fill-rule="nonzero"></path><path stroke="#000000" stroke-width="2.0" stroke-linejoin="round" stroke-linecap="butt" d="m137.01312 173.55905l-56.15748 37.16536" fill-rule="nonzero"></path><path fill="#000000" fill-opacity="0.0" d="m137.01312 173.55905l-14.330711 37.16536" fill-rule="nonzero"></path><path stroke="#000000" stroke-width="2.0" stroke-linejoin="round" stroke-linecap="butt" d="m137.01312 173.55905l-14.330711 37.16536" fill-rule="nonzero"></path><path fill="#000000" fill-opacity="0.0" d="m137.01312 173.55905l27.527557 37.16536" fill-rule="nonzero"></path><path stroke="#000000" stroke-width="2.0" stroke-linejoin="round" stroke-linecap="butt" d="m137.01312 173.55905l27.527557 37.16536" fill-rule="nonzero"></path><path fill="#000000" fill-opacity="0.0" d="m137.01312 173.55905l69.354324 37.16536" fill-rule="nonzero"></path><path stroke="#000000" stroke-width="2.0" stroke-linejoin="round" stroke-linecap="butt" d="m137.01312 173.55905l69.354324 37.16536" fill-rule="nonzero"></path><path fill="#000000" fill-opacity="0.0" d="m610.8425 318.65353l247.33856 0l0 49.606323l-247.33856 0z" fill-rule="nonzero"></path><path fill="#000000" d="m622.92065 345.57355l-3.015625 -9.859375l1.71875 0l1.5625 5.6875l0.59375 2.125q0.03125 -0.15625 0.5 -2.03125l1.578125 -5.78125l1.71875 0l1.46875 5.71875l0.484375 1.890625l0.578125 -1.90625l1.6875 -5.703125l1.625 0l-3.078125 9.859375l-1.734375 0l-1.578125 -5.90625l-0.375 -1.671875l-2.0 7.578125l-1.734375 0zm11.660461 -11.6875l0 -1.90625l1.671875 0l0 1.90625l-1.671875 0zm0 11.6875l0 -9.859375l1.671875 0l0 9.859375l-1.671875 0zm7.7854004 -1.5l0.234375 1.484375q-0.703125 0.140625 -1.265625 0.140625q-0.90625 0 -1.40625 -0.28125q-0.5 -0.296875 -0.703125 -0.75q-0.203125 -0.46875 -0.203125 -1.984375l0 -5.65625l-1.234375 0l0 -1.3125l1.234375 0l0 -2.4375l1.65625 -1.0l0 3.4375l1.6875 0l0 1.3125l-1.6875 0l0 5.75q0 0.71875 0.078125 0.921875q0.09375 0.203125 0.296875 0.328125q0.203125 0.125 0.578125 0.125q0.265625 0 0.734375 -0.078125zm1.5270996 1.5l0 -13.59375l1.671875 0l0 4.875q1.171875 -1.359375 2.953125 -1.359375q1.09375 0 1.890625 0.4375q0.8125 0.421875 1.15625 1.1875q0.359375 0.765625 0.359375 2.203125l0 6.25l-1.671875 0l0 -6.25q0 -1.25 -0.546875 -1.8125q-0.546875 -0.578125 -1.53125 -0.578125q-0.75 0 -1.40625 0.390625q-0.640625 0.375 -0.921875 1.046875q-0.28125 0.65625 -0.28125 1.8125l0 5.390625l-1.671875 0zm15.574646 0l0 -13.59375l1.671875 0l0 7.75l3.953125 -4.015625l2.15625 0l-3.765625 3.65625l4.140625 6.203125l-2.0625 0l-3.25 -5.03125l-1.171875 1.125l0 3.90625l-1.671875 0zm16.0625 -3.171875l1.71875 0.21875q-0.40625 1.5 -1.515625 2.34375q-1.09375 0.828125 -2.8125 0.828125q-2.15625 0 -3.421875 -1.328125q-1.265625 -1.328125 -1.265625 -3.734375q0 -2.484375 1.265625 -3.859375q1.28125 -1.375 3.328125 -1.375q1.984375 0 3.234375 1.34375q1.25 1.34375 1.25 3.796875q0 0.140625 -0.015625 0.4375l-7.34375 0q0.09375 1.625 0.921875 2.484375q0.828125 0.859375 2.0625 0.859375q0.90625 0 1.546875 -0.46875q0.65625 -0.484375 1.046875 -1.546875zm-5.484375 -2.703125l5.5 0q-0.109375 -1.234375 -0.625 -1.859375q-0.796875 -0.96875 -2.078125 -0.96875q-1.140625 0 -1.9375 0.78125q-0.78125 0.765625 -0.859375 2.046875zm9.031921 9.671875l-0.171875 -1.5625q0.546875 0.140625 0.953125 0.140625q0.546875 0 0.875 -0.1875q0.34375 -0.1875 0.5625 -0.515625q0.15625 -0.25 0.5 -1.25q0.046875 -0.140625 0.15625 -0.40625l-3.734375 -9.875l1.796875 0l2.046875 5.71875q0.40625 1.078125 0.71875 2.28125q0.28125 -1.15625 0.6875 -2.25l2.09375 -5.75l1.671875 0l-3.75 10.03125q-0.59375 1.625 -0.9375 2.234375q-0.4375 0.828125 -1.015625 1.203125q-0.578125 0.390625 -1.375 0.390625q-0.484375 0 -1.078125 -0.203125z" fill-rule="nonzero"></path><path fill="#000000" fill-opacity="0.0" d="m194.92126 318.65353l155.65353 0l0 49.606323l-155.65353 0z" fill-rule="nonzero"></path><path fill="#000000" d="m206.99939 345.57355l-3.015625 -9.859375l1.71875 0l1.5625 5.6875l0.59375 2.125q0.03125 -0.15625 0.5 -2.03125l1.578125 -5.78125l1.71875 0l1.46875 5.71875l0.484375 1.890625l0.578125 -1.90625l1.6875 -5.703125l1.625 0l-3.078125 9.859375l-1.734375 0l-1.578125 -5.90625l-0.375 -1.671875l-2.0 7.578125l-1.734375 0zm11.660446 -11.6875l0 -1.90625l1.671875 0l0 1.90625l-1.671875 0zm0 11.6875l0 -9.859375l1.671875 0l0 9.859375l-1.671875 0zm7.785446 -1.5l0.234375 1.484375q-0.703125 0.140625 -1.265625 0.140625q-0.90625 0 -1.40625 -0.28125q-0.5 -0.296875 -0.703125 -0.75q-0.203125 -0.46875 -0.203125 -1.984375l0 -5.65625l-1.234375 0l0 -1.3125l1.234375 0l0 -2.4375l1.65625 -1.0l0 3.4375l1.6875 0l0 1.3125l-1.6875 0l0 5.75q0 0.71875 0.078125 0.921875q0.09375 0.203125 0.296875 0.328125q0.203125 0.125 0.578125 0.125q0.265625 0 0.734375 -0.078125zm1.5270538 1.5l0 -13.59375l1.671875 0l0 4.875q1.171875 -1.359375 2.953125 -1.359375q1.09375 0 1.890625 0.4375q0.8125 0.421875 1.15625 1.1875q0.359375 0.765625 0.359375 2.203125l0 6.25l-1.671875 0l0 -6.25q0 -1.25 -0.546875 -1.8125q-0.546875 -0.578125 -1.53125 -0.578125q-0.75 0 -1.40625 0.390625q-0.640625 0.375 -0.921875 1.046875q-0.28125 0.65625 -0.28125 1.8125l0 5.390625l-1.671875 0zm9.750717 -4.921875q0 -2.734375 1.53125 -4.0625q1.265625 -1.09375 3.09375 -1.09375q2.03125 0 3.3125 1.34375q1.296875 1.328125 1.296875 3.671875q0 1.90625 -0.578125 3.0q-0.5625 1.078125 -1.65625 1.6875q-1.078125 0.59375 -2.375 0.59375q-2.0625 0 -3.34375 -1.328125q-1.28125 -1.328125 -1.28125 -3.8125zm1.71875 0q0 1.890625 0.828125 2.828125q0.828125 0.9375 2.078125 0.9375q1.25 0 2.0625 -0.9375q0.828125 -0.953125 0.828125 -2.890625q0 -1.828125 -0.828125 -2.765625q-0.828125 -0.9375 -2.0625 -0.9375q-1.25 0 -2.078125 0.9375q-0.828125 0.9375 -0.828125 2.828125zm15.735092 4.921875l0 -1.453125q-1.140625 1.671875 -3.125 1.671875q-0.859375 0 -1.625 -0.328125q-0.75 -0.34375 -1.125 -0.84375q-0.359375 -0.5 -0.515625 -1.234375q-0.09375 -0.5 -0.09375 -1.5625l0 -6.109375l1.671875 0l0 5.46875q0 1.3125 0.09375 1.765625q0.15625 0.65625 0.671875 1.03125q0.515625 0.375 1.265625 0.375q0.75 0 1.40625 -0.375q0.65625 -0.390625 0.921875 -1.046875q0.28125 -0.671875 0.28125 -1.9375l0 -5.28125l1.6718597 0l0 9.859375l-1.4999847 0zm7.578842 -1.5l0.234375 1.484375q-0.703125 0.140625 -1.265625 0.140625q-0.90625 0 -1.40625 -0.28125q-0.5 -0.296875 -0.703125 -0.75q-0.203125 -0.46875 -0.203125 -1.984375l0 -5.65625l-1.234375 0l0 -1.3125l1.234375 0l0 -2.4375l1.65625 -1.0l0 3.4375l1.6875 0l0 1.3125l-1.6875 0l0 5.75q0 0.71875 0.078125 0.921875q0.09375 0.203125 0.296875 0.328125q0.203125 0.125 0.578125 0.125q0.265625 0 0.734375 -0.078125zm6.7259827 1.5l0 -13.59375l1.671875 0l0 7.75l3.953125 -4.015625l2.15625 0l-3.765625 3.65625l4.140625 6.203125l-2.0625 0l-3.25 -5.03125l-1.171875 1.125l0 3.90625l-1.671875 0zm16.0625 -3.171875l1.71875 0.21875q-0.40625 1.5 -1.515625 2.34375q-1.09375 0.828125 -2.8125 0.828125q-2.15625 0 -3.421875 -1.328125q-1.265625 -1.328125 -1.265625 -3.734375q0 -2.484375 1.265625 -3.859375q1.28125 -1.375 3.328125 -1.375q1.984375 0 3.234375 1.34375q1.25 1.34375 1.25 3.796875q0 0.140625 -0.015625 0.4375l-7.34375 0q0.09375 1.625 0.921875 2.484375q0.828125 0.859375 2.0625 0.859375q0.90625 0 1.546875 -0.46875q0.65625 -0.484375 1.046875 -1.546875zm-5.484375 -2.703125l5.5 0q-0.109375 -1.234375 -0.625 -1.859375q-0.796875 -0.96875 -2.078125 -0.96875q-1.140625 0 -1.9375 0.78125q-0.78125 0.765625 -0.859375 2.046875zm9.031952 9.671875l-0.171875 -1.5625q0.546875 0.140625 0.953125 0.140625q0.546875 0 0.875 -0.1875q0.34375 -0.1875 0.5625 -0.515625q0.15625 -0.25 0.5 -1.25q0.046875 -0.140625 0.15625 -0.40625l-3.734375 -9.875l1.796875 0l2.046875 5.71875q0.40625 1.078125 0.71875 2.28125q0.28125 -1.15625 0.6875 -2.25l2.09375 -5.75l1.671875 0l-3.75 10.03125q-0.59375 1.625 -0.9375 2.234375q-0.4375 0.828125 -1.015625 1.203125q-0.578125 0.390625 -1.375 0.390625q-0.484375 0 -1.078125 -0.203125z" fill-rule="nonzero"></path><path fill="#cfe2f3" d="m299.12598 159.60236l0 0c0 -7.705887 6.2468567 -13.952744 13.952759 -13.952744l0 0c3.7005005 0 7.2494507 1.4700165 9.866089 4.0866547c2.6166687 2.6166534 4.08667 6.1655884 4.08667 9.866089l0 0c0 7.705902 -6.2468567 13.952759 -13.952759 13.952759l0 0c-7.705902 0 -13.952759 -6.2468567 -13.952759 -13.952759z" fill-rule="nonzero"></path><path stroke="#000000" stroke-width="2.0" stroke-linejoin="round" stroke-linecap="butt" d="m299.12598 159.60236l0 0c0 -7.705887 6.2468567 -13.952744 13.952759 -13.952744l0 0c3.7005005 0 7.2494507 1.4700165 9.866089 4.0866547c2.6166687 2.6166534 4.08667 6.1655884 4.08667 9.866089l0 0c0 7.705902 -6.2468567 13.952759 -13.952759 13.952759l0 0c-7.705902 0 -13.952759 -6.2468567 -13.952759 -13.952759z" fill-rule="nonzero"></path><path fill="#cfe2f3" d="m242.96457 224.6811l0 0c0 -7.705902 6.2468567 -13.952759 13.952759 -13.952759l0 0c3.7005005 0 7.24942 1.4700165 9.866089 4.08667c2.6166382 2.6166382 4.08667 6.1655884 4.08667 9.866089l0 0c0 7.705887 -6.2468567 13.952759 -13.952759 13.952759l0 0c-7.705902 0 -13.952759 -6.246872 -13.952759 -13.952759z" fill-rule="nonzero"></path><path stroke="#000000" stroke-width="2.0" stroke-linejoin="round" stroke-linecap="butt" d="m242.96457 224.6811l0 0c0 -7.705902 6.2468567 -13.952759 13.952759 -13.952759l0 0c3.7005005 0 7.24942 1.4700165 9.866089 4.08667c2.6166382 2.6166382 4.08667 6.1655884 4.08667 9.866089l0 0c0 7.705887 -6.2468567 13.952759 -13.952759 13.952759l0 0c-7.705902 0 -13.952759 -6.246872 -13.952759 -13.952759z" fill-rule="nonzero"></path><path fill="#cfe2f3" d="m284.80316 224.6811l0 0c0 -7.705902 6.2468567 -13.952759 13.952759 -13.952759l0 0c3.7005005 0 7.24942 1.4700165 9.866058 4.08667c2.6166687 2.6166382 4.08667 6.1655884 4.08667 9.866089l0 0c0 7.705887 -6.2468567 13.952759 -13.952728 13.952759l0 0c-7.705902 0 -13.952759 -6.246872 -13.952759 -13.952759z" fill-rule="nonzero"></path><path stroke="#000000" stroke-width="2.0" stroke-linejoin="round" stroke-linecap="butt" d="m284.80316 224.6811l0 0c0 -7.705902 6.2468567 -13.952759 13.952759 -13.952759l0 0c3.7005005 0 7.24942 1.4700165 9.866058 4.08667c2.6166687 2.6166382 4.08667 6.1655884 4.08667 9.866089l0 0c0 7.705887 -6.2468567 13.952759 -13.952728 13.952759l0 0c-7.705902 0 -13.952759 -6.246872 -13.952759 -13.952759z" fill-rule="nonzero"></path><path fill="#fce5cd" d="m326.6391 224.6811l0 0c0 -7.705902 6.2468567 -13.952759 13.952759 -13.952759l0 0c3.7005005 0 7.2494507 1.4700165 9.866089 4.08667c2.6166687 2.6166382 4.08667 6.1655884 4.08667 9.866089l0 0c0 7.705887 -6.2468567 13.952759 -13.952759 13.952759l0 0c-7.705902 0 -13.952759 -6.246872 -13.952759 -13.952759z" fill-rule="nonzero"></path><path stroke="#000000" stroke-width="2.0" stroke-linejoin="round" stroke-linecap="butt" d="m326.6391 224.6811l0 0c0 -7.705902 6.2468567 -13.952759 13.952759 -13.952759l0 0c3.7005005 0 7.2494507 1.4700165 9.866089 4.08667c2.6166687 2.6166382 4.08667 6.1655884 4.08667 9.866089l0 0c0 7.705887 -6.2468567 13.952759 -13.952759 13.952759l0 0c-7.705902 0 -13.952759 -6.246872 -13.952759 -13.952759z" fill-rule="nonzero"></path><path fill="#cfe2f3" d="m368.47375 224.6811l0 0c0 -7.705902 6.2468567 -13.952759 13.952759 -13.952759l0 0c3.7005005 0 7.24942 1.4700165 9.866089 4.08667c2.6166382 2.6166382 4.08667 6.1655884 4.08667 9.866089l0 0c0 7.705887 -6.2468567 13.952759 -13.952759 13.952759l0 0c-7.705902 0 -13.952759 -6.246872 -13.952759 -13.952759z" fill-rule="nonzero"></path><path stroke="#000000" stroke-width="2.0" stroke-linejoin="round" stroke-linecap="butt" d="m368.47375 224.6811l0 0c0 -7.705902 6.2468567 -13.952759 13.952759 -13.952759l0 0c3.7005005 0 7.24942 1.4700165 9.866089 4.08667c2.6166382 2.6166382 4.08667 6.1655884 4.08667 9.866089l0 0c0 7.705887 -6.2468567 13.952759 -13.952759 13.952759l0 0c-7.705902 0 -13.952759 -6.246872 -13.952759 -13.952759z" fill-rule="nonzero"></path><path fill="#000000" fill-opacity="0.0" d="m313.07874 173.55511l-56.15747 37.16536" fill-rule="nonzero"></path><path stroke="#000000" stroke-width="2.0" stroke-linejoin="round" stroke-linecap="butt" d="m313.07874 173.55511l-56.15747 37.16536" fill-rule="nonzero"></path><path fill="#000000" fill-opacity="0.0" d="m313.07874 173.55511l-14.330719 37.16536" fill-rule="nonzero"></path><path stroke="#000000" stroke-width="2.0" stroke-linejoin="round" stroke-linecap="butt" d="m313.07874 173.55511l-14.330719 37.16536" fill-rule="nonzero"></path><path fill="#000000" fill-opacity="0.0" d="m313.07874 173.55511l27.527557 37.16536" fill-rule="nonzero"></path><path stroke="#000000" stroke-width="2.0" stroke-linejoin="round" stroke-linecap="butt" d="m313.07874 173.55511l27.527557 37.16536" fill-rule="nonzero"></path><path fill="#000000" fill-opacity="0.0" d="m313.07874 173.55511l69.35434 37.16536" fill-rule="nonzero"></path><path stroke="#000000" stroke-width="2.0" stroke-linejoin="round" stroke-linecap="butt" d="m313.07874 173.55511l69.35434 37.16536" fill-rule="nonzero"></path><path fill="#cfe2f3" d="m410.3084 224.6811l0 0c0 -7.705902 6.2468567 -13.952759 13.952759 -13.952759l0 0c3.7005005 0 7.24942 1.4700165 9.866089 4.08667c2.6166382 2.6166382 4.0866394 6.1655884 4.0866394 9.866089l0 0c0 7.705887 -6.2468567 13.952759 -13.952728 13.952759l0 0c-7.705902 0 -13.952759 -6.246872 -13.952759 -13.952759z" fill-rule="nonzero"></path><path stroke="#000000" stroke-width="2.0" stroke-linejoin="round" stroke-linecap="butt" d="m410.3084 224.6811l0 0c0 -7.705902 6.2468567 -13.952759 13.952759 -13.952759l0 0c3.7005005 0 7.24942 1.4700165 9.866089 4.08667c2.6166382 2.6166382 4.0866394 6.1655884 4.0866394 9.866089l0 0c0 7.705887 -6.2468567 13.952759 -13.952728 13.952759l0 0c-7.705902 0 -13.952759 -6.246872 -13.952759 -13.952759z" fill-rule="nonzero"></path><path fill="#000000" fill-opacity="0.0" d="m313.07874 173.55511l111.18112 37.16536" fill-rule="nonzero"></path><path stroke="#000000" stroke-width="2.0" stroke-linejoin="round" stroke-linecap="butt" d="m313.07874 173.55511l111.18112 37.16536" fill-rule="nonzero"></path><path fill="#fce5cd" d="m127.3937 290.3937l0 0c0 -7.705902 6.2468643 -13.952759 13.952751 -13.952759l0 0c3.7005005 0 7.2494507 1.4700012 9.866089 4.08667c2.6166534 2.6166382 4.08667 6.1655884 4.08667 9.866089l0 0c0 7.705902 -6.2468567 13.952759 -13.952759 13.952759l0 0c-7.705887 0 -13.952751 -6.2468567 -13.952751 -13.952759z" fill-rule="nonzero"></path><path stroke="#000000" stroke-width="2.0" stroke-linejoin="round" stroke-linecap="butt" d="m127.3937 290.3937l0 0c0 -7.705902 6.2468643 -13.952759 13.952751 -13.952759l0 0c3.7005005 0 7.2494507 1.4700012 9.866089 4.08667c2.6166534 2.6166382 4.08667 6.1655884 4.08667 9.866089l0 0c0 7.705902 -6.2468567 13.952759 -13.952759 13.952759l0 0c-7.705887 0 -13.952751 -6.2468567 -13.952751 -13.952759z" fill-rule="nonzero"></path><path fill="#000000" fill-opacity="0.0" d="m141.34645 276.44095l1.448822 -36.0" fill-rule="nonzero"></path><path stroke="#000000" stroke-width="2.0" stroke-linejoin="round" stroke-linecap="butt" d="m141.34645 276.44095l0.9662781 -24.009705" fill-rule="evenodd"></path><path fill="#000000" stroke="#000000" stroke-width="2.0" stroke-linecap="butt" d="m145.61353 252.56407l-2.9358215 -9.201691l-3.6657715 8.93602z" fill-rule="evenodd"></path><path fill="#000000" fill-opacity="0.0" d="m150.5748 260.5862l60.031494 0l0 30.582672l-60.031494 0z" fill-rule="nonzero"></path><path fill="#000000" d="m160.43417 274.40182l0 -1.328125l1.140625 0l0 1.328125l-1.140625 0zm0 7.984375l0 -6.734375l1.140625 0l0 6.734375l-1.140625 0zm2.96109 0l0 -6.734375l1.03125 0l0 0.953125q0.734375 -1.109375 2.140625 -1.109375q0.609375 0 1.109375 0.21875q0.515625 0.21875 0.765625 0.578125q0.265625 0.34375 0.359375 0.84375q0.0625 0.3125 0.0625 1.109375l0 4.140625l-1.140625 0l0 -4.09375q0 -0.703125 -0.140625 -1.046875q-0.125 -0.34375 -0.46875 -0.546875q-0.328125 -0.21875 -0.78125 -0.21875q-0.734375 0 -1.265625 0.46875q-0.53125 0.453125 -0.53125 1.75l0 3.6875l-1.140625 0zm6.9593506 -2.015625l1.125 -0.171875q0.09375 0.671875 0.53125 1.046875q0.4375 0.359375 1.21875 0.359375q0.78125 0 1.15625 -0.3125q0.390625 -0.328125 0.390625 -0.765625q0 -0.390625 -0.34375 -0.609375q-0.234375 -0.15625 -1.171875 -0.390625q-1.25 -0.3125 -1.734375 -0.546875q-0.484375 -0.234375 -0.734375 -0.640625q-0.25 -0.40625 -0.25 -0.90625q0 -0.453125 0.203125 -0.828125q0.203125 -0.390625 0.5625 -0.640625q0.265625 -0.203125 0.71875 -0.328125q0.46875 -0.140625 1.0 -0.140625q0.78125 0 1.375 0.234375q0.609375 0.21875 0.890625 0.609375q0.296875 0.390625 0.40625 1.046875l-1.125 0.15625q-0.078125 -0.53125 -0.4375 -0.8125q-0.359375 -0.296875 -1.03125 -0.296875q-0.78125 0 -1.125 0.265625q-0.34375 0.25 -0.34375 0.609375q0 0.21875 0.140625 0.390625q0.140625 0.1875 0.4375 0.3125q0.171875 0.0625 1.015625 0.28125q1.21875 0.328125 1.6875 0.53125q0.484375 0.203125 0.75 0.609375q0.28125 0.390625 0.28125 0.96875q0 0.578125 -0.34375 1.078125q-0.328125 0.5 -0.953125 0.78125q-0.625 0.28125 -1.421875 0.28125q-1.3125 0 -2.0 -0.546875q-0.6875 -0.546875 -0.875 -1.625zm11.7265625 -0.15625l1.1875 0.140625q-0.28125 1.046875 -1.046875 1.625q-0.75 0.5625 -1.921875 0.5625q-1.484375 0 -2.359375 -0.90625q-0.859375 -0.921875 -0.859375 -2.5625q0 -1.703125 0.875 -2.640625q0.890625 -0.9375 2.28125 -0.9375q1.359375 0 2.203125 0.921875q0.859375 0.921875 0.859375 2.578125q0 0.109375 0 0.3125l-5.03125 0q0.0625 1.109375 0.625 1.703125q0.5625 0.59375 1.40625 0.59375q0.640625 0 1.078125 -0.328125q0.453125 -0.34375 0.703125 -1.0625zm-3.75 -1.84375l3.765625 0q-0.078125 -0.859375 -0.4375 -1.28125q-0.546875 -0.65625 -1.40625 -0.65625q-0.796875 0 -1.328125 0.53125q-0.53125 0.515625 -0.59375 1.40625zm6.5374756 4.015625l0 -6.734375l1.03125 0l0 1.015625q0.390625 -0.71875 0.71875 -0.9375q0.34375 -0.234375 0.734375 -0.234375q0.578125 0 1.171875 0.359375l-0.390625 1.0625q-0.421875 -0.25 -0.828125 -0.25q-0.375 0 -0.6875 0.234375q-0.296875 0.21875 -0.421875 0.625q-0.1875 0.609375 -0.1875 1.328125l0 3.53125l-1.140625 0zm6.9539948 -1.015625l0.15625 1.0q-0.484375 0.109375 -0.859375 0.109375q-0.625 0 -0.96875 -0.203125q-0.34375 -0.203125 -0.484375 -0.515625q-0.140625 -0.328125 -0.140625 -1.34375l0 -3.890625l-0.828125 0l0 -0.875l0.828125 0l0 -1.671875l1.140625 -0.6875l0 2.359375l1.15625 0l0 0.875l-1.15625 0l0 3.953125q0 0.484375 0.0625 0.625q0.0625 0.140625 0.1875 0.21875q0.140625 0.078125 0.390625 0.078125q0.203125 0 0.515625 -0.03125z" fill-rule="nonzero"></path><path fill="#000000" fill-opacity="0.0" d="m80.85171 238.6378l0 9.099731l176.06299 0l0 -9.036743" fill-rule="nonzero"></path><path stroke="#93c47d" stroke-width="2.0" stroke-linejoin="round" stroke-linecap="butt" d="m80.85171 238.6378l0 9.099731l176.06299 0l0 -9.036743" fill-rule="nonzero"></path><path fill="#000000" fill-opacity="0.0" d="m122.69029 238.6378l0 18.398941l176.063 0l0 -18.335953" fill-rule="nonzero"></path><path stroke="#93c47d" stroke-width="2.0" stroke-linejoin="round" stroke-linecap="butt" d="m122.69029 238.6378l0 18.398941l176.063 0l0 -18.335953" fill-rule="nonzero"></path><path fill="#000000" fill-opacity="0.0" d="m164.52625 238.6378l0 26.367447l176.06299 0l0 -26.304459" fill-rule="nonzero"></path><path stroke="#f6b26b" stroke-width="2.0" stroke-linejoin="round" stroke-linecap="butt" d="m164.52625 238.6378l0 26.367447l176.06299 0l0 -26.304459" fill-rule="nonzero"></path><path fill="#000000" fill-opacity="0.0" d="m206.36089 238.6378l0 35.00261l176.063 0l0 -34.93962" fill-rule="nonzero"></path><path stroke="#f6b26b" stroke-width="2.0" stroke-linejoin="round" stroke-linecap="butt" d="m206.36089 238.6378l0 35.00261l176.063 0l0 -34.93962" fill-rule="nonzero"></path><path fill="#cfe2f3" d="m576.0289 159.29265l0 0c0 -7.705887 6.246887 -13.952759 13.952759 -13.952759l0 0c3.7005005 0 7.2494507 1.4700165 9.866089 4.08667c2.6166382 2.6166534 4.08667 6.1655884 4.08667 9.866089l0 0c0 7.705902 -6.246887 13.952759 -13.952759 13.952759l0 0c-7.7058716 0 -13.952759 -6.2468567 -13.952759 -13.952759z" fill-rule="nonzero"></path><path stroke="#000000" stroke-width="2.0" stroke-linejoin="round" stroke-linecap="butt" d="m576.0289 159.29265l0 0c0 -7.705887 6.246887 -13.952759 13.952759 -13.952759l0 0c3.7005005 0 7.2494507 1.4700165 9.866089 4.08667c2.6166382 2.6166534 4.08667 6.1655884 4.08667 9.866089l0 0c0 7.705902 -6.246887 13.952759 -13.952759 13.952759l0 0c-7.7058716 0 -13.952759 -6.2468567 -13.952759 -13.952759z" fill-rule="nonzero"></path><path fill="#cfe2f3" d="m519.86743 224.37138l0 0c0 -7.705887 6.246887 -13.952744 13.952759 -13.952744l0 0c3.7005005 0 7.2494507 1.4700165 9.866089 4.08667c2.6166382 2.6166382 4.08667 6.165573 4.08667 9.866074l0 0c0 7.705902 -6.246826 13.952759 -13.952759 13.952759l0 0c-7.7058716 0 -13.952759 -6.2468567 -13.952759 -13.952759z" fill-rule="nonzero"></path><path stroke="#000000" stroke-width="2.0" stroke-linejoin="round" stroke-linecap="butt" d="m519.86743 224.37138l0 0c0 -7.705887 6.246887 -13.952744 13.952759 -13.952744l0 0c3.7005005 0 7.2494507 1.4700165 9.866089 4.08667c2.6166382 2.6166382 4.08667 6.165573 4.08667 9.866074l0 0c0 7.705902 -6.246826 13.952759 -13.952759 13.952759l0 0c-7.7058716 0 -13.952759 -6.2468567 -13.952759 -13.952759z" fill-rule="nonzero"></path><path fill="#cfe2f3" d="m561.70605 224.37138l0 0c0 -7.705887 6.246826 -13.952744 13.952759 -13.952744l0 0c3.7005005 0 7.2493896 1.4700165 9.866089 4.08667c2.6166382 2.6166382 4.08667 6.165573 4.08667 9.866074l0 0c0 7.705902 -6.246887 13.952759 -13.952759 13.952759l0 0c-7.7059326 0 -13.952759 -6.2468567 -13.952759 -13.952759z" fill-rule="nonzero"></path><path stroke="#000000" stroke-width="2.0" stroke-linejoin="round" stroke-linecap="butt" d="m561.70605 224.37138l0 0c0 -7.705887 6.246826 -13.952744 13.952759 -13.952744l0 0c3.7005005 0 7.2493896 1.4700165 9.866089 4.08667c2.6166382 2.6166382 4.08667 6.165573 4.08667 9.866074l0 0c0 7.705902 -6.246887 13.952759 -13.952759 13.952759l0 0c-7.7059326 0 -13.952759 -6.2468567 -13.952759 -13.952759z" fill-rule="nonzero"></path><path fill="#cfe2f3" d="m603.542 224.37138l0 0c0 -7.705887 6.246887 -13.952744 13.952759 -13.952744l0 0c3.7005005 0 7.2494507 1.4700165 9.866089 4.08667c2.6166382 2.6166382 4.08667 6.165573 4.08667 9.866074l0 0c0 7.705902 -6.246887 13.952759 -13.952759 13.952759l0 0c-7.7058716 0 -13.952759 -6.2468567 -13.952759 -13.952759z" fill-rule="nonzero"></path><path stroke="#000000" stroke-width="2.0" stroke-linejoin="round" stroke-linecap="butt" d="m603.542 224.37138l0 0c0 -7.705887 6.246887 -13.952744 13.952759 -13.952744l0 0c3.7005005 0 7.2494507 1.4700165 9.866089 4.08667c2.6166382 2.6166382 4.08667 6.165573 4.08667 9.866074l0 0c0 7.705902 -6.246887 13.952759 -13.952759 13.952759l0 0c-7.7058716 0 -13.952759 -6.2468567 -13.952759 -13.952759z" fill-rule="nonzero"></path><path fill="#cfe2f3" d="m645.37665 224.37138l0 0c0 -7.705887 6.246826 -13.952744 13.952759 -13.952744l0 0c3.7005005 0 7.2494507 1.4700165 9.866089 4.08667c2.6166382 2.6166382 4.08667 6.165573 4.08667 9.866074l0 0c0 7.705902 -6.246887 13.952759 -13.952759 13.952759l0 0c-7.7059326 0 -13.952759 -6.2468567 -13.952759 -13.952759z" fill-rule="nonzero"></path><path stroke="#000000" stroke-width="2.0" stroke-linejoin="round" stroke-linecap="butt" d="m645.37665 224.37138l0 0c0 -7.705887 6.246826 -13.952744 13.952759 -13.952744l0 0c3.7005005 0 7.2494507 1.4700165 9.866089 4.08667c2.6166382 2.6166382 4.08667 6.165573 4.08667 9.866074l0 0c0 7.705902 -6.246887 13.952759 -13.952759 13.952759l0 0c-7.7059326 0 -13.952759 -6.2468567 -13.952759 -13.952759z" fill-rule="nonzero"></path><path fill="#000000" fill-opacity="0.0" d="m589.9816 173.2454l-56.15747 37.16536" fill-rule="nonzero"></path><path stroke="#000000" stroke-width="2.0" stroke-linejoin="round" stroke-linecap="butt" d="m589.9816 173.2454l-56.15747 37.16536" fill-rule="nonzero"></path><path fill="#000000" fill-opacity="0.0" d="m589.9816 173.2454l-14.330688 37.16536" fill-rule="nonzero"></path><path stroke="#000000" stroke-width="2.0" stroke-linejoin="round" stroke-linecap="butt" d="m589.9816 173.2454l-14.330688 37.16536" fill-rule="nonzero"></path><path fill="#000000" fill-opacity="0.0" d="m589.9816 173.2454l27.527588 37.16536" fill-rule="nonzero"></path><path stroke="#000000" stroke-width="2.0" stroke-linejoin="round" stroke-linecap="butt" d="m589.9816 173.2454l27.527588 37.16536" fill-rule="nonzero"></path><path fill="#000000" fill-opacity="0.0" d="m589.9816 173.2454l69.35431 37.16536" fill-rule="nonzero"></path><path stroke="#000000" stroke-width="2.0" stroke-linejoin="round" stroke-linecap="butt" d="m589.9816 173.2454l69.35431 37.16536" fill-rule="nonzero"></path><path fill="#cfe2f3" d="m752.0945 159.28871l0 0c0 -7.705887 6.246887 -13.952759 13.952759 -13.952759l0 0c3.7005005 0 7.2494507 1.4700165 9.866089 4.08667c2.6166382 2.6166534 4.08667 6.1655884 4.08667 9.866089l0 0c0 7.705902 -6.246887 13.952759 -13.952759 13.952759l0 0c-7.7058716 0 -13.952759 -6.2468567 -13.952759 -13.952759z" fill-rule="nonzero"></path><path stroke="#000000" stroke-width="2.0" stroke-linejoin="round" stroke-linecap="butt" d="m752.0945 159.28871l0 0c0 -7.705887 6.246887 -13.952759 13.952759 -13.952759l0 0c3.7005005 0 7.2494507 1.4700165 9.866089 4.08667c2.6166382 2.6166534 4.08667 6.1655884 4.08667 9.866089l0 0c0 7.705902 -6.246887 13.952759 -13.952759 13.952759l0 0c-7.7058716 0 -13.952759 -6.2468567 -13.952759 -13.952759z" fill-rule="nonzero"></path><path fill="#cfe2f3" d="m695.93304 224.36745l0 0c0 -7.705887 6.246887 -13.952744 13.952759 -13.952744l0 0c3.7005005 0 7.2494507 1.4700165 9.866089 4.08667c2.6166992 2.6166382 4.08667 6.165573 4.08667 9.866074l0 0c0 7.705902 -6.246826 13.952759 -13.952759 13.952759l0 0c-7.7058716 0 -13.952759 -6.2468567 -13.952759 -13.952759z" fill-rule="nonzero"></path><path stroke="#000000" stroke-width="2.0" stroke-linejoin="round" stroke-linecap="butt" d="m695.93304 224.36745l0 0c0 -7.705887 6.246887 -13.952744 13.952759 -13.952744l0 0c3.7005005 0 7.2494507 1.4700165 9.866089 4.08667c2.6166992 2.6166382 4.08667 6.165573 4.08667 9.866074l0 0c0 7.705902 -6.246826 13.952759 -13.952759 13.952759l0 0c-7.7058716 0 -13.952759 -6.2468567 -13.952759 -13.952759z" fill-rule="nonzero"></path><path fill="#cfe2f3" d="m737.77167 224.36745l0 0c0 -7.705887 6.246826 -13.952744 13.952759 -13.952744l0 0c3.7005005 0 7.2494507 1.4700165 9.866089 4.08667c2.6166382 2.6166382 4.08667 6.165573 4.08667 9.866074l0 0c0 7.705902 -6.246887 13.952759 -13.952759 13.952759l0 0c-7.7059326 0 -13.952759 -6.2468567 -13.952759 -13.952759z" fill-rule="nonzero"></path><path stroke="#000000" stroke-width="2.0" stroke-linejoin="round" stroke-linecap="butt" d="m737.77167 224.36745l0 0c0 -7.705887 6.246826 -13.952744 13.952759 -13.952744l0 0c3.7005005 0 7.2494507 1.4700165 9.866089 4.08667c2.6166382 2.6166382 4.08667 6.165573 4.08667 9.866074l0 0c0 7.705902 -6.246887 13.952759 -13.952759 13.952759l0 0c-7.7059326 0 -13.952759 -6.2468567 -13.952759 -13.952759z" fill-rule="nonzero"></path><path fill="#fce5cd" d="m779.6076 224.36745l0 0c0 -7.705887 6.246887 -13.952744 13.952759 -13.952744l0 0c3.7005005 0 7.2494507 1.4700165 9.866089 4.08667c2.6166382 2.6166382 4.08667 6.165573 4.08667 9.866074l0 0c0 7.705902 -6.246887 13.952759 -13.952759 13.952759l0 0c-7.7058716 0 -13.952759 -6.2468567 -13.952759 -13.952759z" fill-rule="nonzero"></path><path stroke="#000000" stroke-width="2.0" stroke-linejoin="round" stroke-linecap="butt" d="m779.6076 224.36745l0 0c0 -7.705887 6.246887 -13.952744 13.952759 -13.952744l0 0c3.7005005 0 7.2494507 1.4700165 9.866089 4.08667c2.6166382 2.6166382 4.08667 6.165573 4.08667 9.866074l0 0c0 7.705902 -6.246887 13.952759 -13.952759 13.952759l0 0c-7.7058716 0 -13.952759 -6.2468567 -13.952759 -13.952759z" fill-rule="nonzero"></path><path fill="#cfe2f3" d="m821.44226 224.36745l0 0c0 -7.705887 6.246887 -13.952744 13.952759 -13.952744l0 0c3.7005005 0 7.2494507 1.4700165 9.866089 4.08667c2.6166382 2.6166382 4.08667 6.165573 4.08667 9.866074l0 0c0 7.705902 -6.246887 13.952759 -13.952759 13.952759l0 0c-7.7058716 0 -13.952759 -6.2468567 -13.952759 -13.952759z" fill-rule="nonzero"></path><path stroke="#000000" stroke-width="2.0" stroke-linejoin="round" stroke-linecap="butt" d="m821.44226 224.36745l0 0c0 -7.705887 6.246887 -13.952744 13.952759 -13.952744l0 0c3.7005005 0 7.2494507 1.4700165 9.866089 4.08667c2.6166382 2.6166382 4.08667 6.165573 4.08667 9.866074l0 0c0 7.705902 -6.246887 13.952759 -13.952759 13.952759l0 0c-7.7058716 0 -13.952759 -6.2468567 -13.952759 -13.952759z" fill-rule="nonzero"></path><path fill="#000000" fill-opacity="0.0" d="m766.04724 173.24147l-56.15747 37.16536" fill-rule="nonzero"></path><path stroke="#000000" stroke-width="2.0" stroke-linejoin="round" stroke-linecap="butt" d="m766.04724 173.24147l-56.15747 37.16536" fill-rule="nonzero"></path><path fill="#000000" fill-opacity="0.0" d="m766.04724 173.24147l-14.330688 37.16536" fill-rule="nonzero"></path><path stroke="#000000" stroke-width="2.0" stroke-linejoin="round" stroke-linecap="butt" d="m766.04724 173.24147l-14.330688 37.16536" fill-rule="nonzero"></path><path fill="#000000" fill-opacity="0.0" d="m766.04724 173.24147l27.527588 37.16536" fill-rule="nonzero"></path><path stroke="#000000" stroke-width="2.0" stroke-linejoin="round" stroke-linecap="butt" d="m766.04724 173.24147l27.527588 37.16536" fill-rule="nonzero"></path><path fill="#000000" fill-opacity="0.0" d="m766.04724 173.24147l69.35431 37.16536" fill-rule="nonzero"></path><path stroke="#000000" stroke-width="2.0" stroke-linejoin="round" stroke-linecap="butt" d="m766.04724 173.24147l69.35431 37.16536" fill-rule="nonzero"></path><path fill="#cfe2f3" d="m863.2769 224.36745l0 0c0 -7.705887 6.246826 -13.952744 13.952759 -13.952744l0 0c3.7005005 0 7.2494507 1.4700165 9.866089 4.08667c2.6166382 2.6166382 4.08667 6.165573 4.08667 9.866074l0 0c0 7.705902 -6.246887 13.952759 -13.952759 13.952759l0 0c-7.7059326 0 -13.952759 -6.2468567 -13.952759 -13.952759z" fill-rule="nonzero"></path><path stroke="#000000" stroke-width="2.0" stroke-linejoin="round" stroke-linecap="butt" d="m863.2769 224.36745l0 0c0 -7.705887 6.246826 -13.952744 13.952759 -13.952744l0 0c3.7005005 0 7.2494507 1.4700165 9.866089 4.08667c2.6166382 2.6166382 4.08667 6.165573 4.08667 9.866074l0 0c0 7.705902 -6.246887 13.952759 -13.952759 13.952759l0 0c-7.7059326 0 -13.952759 -6.2468567 -13.952759 -13.952759z" fill-rule="nonzero"></path><path fill="#000000" fill-opacity="0.0" d="m766.04724 173.24147l111.18109 37.16536" fill-rule="nonzero"></path><path stroke="#000000" stroke-width="2.0" stroke-linejoin="round" stroke-linecap="butt" d="m766.04724 173.24147l111.18109 37.16536" fill-rule="nonzero"></path><path fill="#fce5cd" d="m580.3622 290.08005l0 0c0 -7.705902 6.246887 -13.952759 13.952759 -13.952759l0 0c3.7005005 0 7.2494507 1.4700317 9.866089 4.08667c2.6166382 2.6166687 4.08667 6.1655884 4.08667 9.866089l0 0c0 7.705902 -6.246826 13.952759 -13.952759 13.952759l0 0c-7.7058716 0 -13.952759 -6.2468567 -13.952759 -13.952759z" fill-rule="nonzero"></path><path stroke="#000000" stroke-width="2.0" stroke-linejoin="round" stroke-linecap="butt" d="m580.3622 290.08005l0 0c0 -7.705902 6.246887 -13.952759 13.952759 -13.952759l0 0c3.7005005 0 7.2494507 1.4700317 9.866089 4.08667c2.6166382 2.6166687 4.08667 6.1655884 4.08667 9.866089l0 0c0 7.705902 -6.246826 13.952759 -13.952759 13.952759l0 0c-7.7058716 0 -13.952759 -6.2468567 -13.952759 -13.952759z" fill-rule="nonzero"></path><path fill="#000000" fill-opacity="0.0" d="m594.31494 276.1273l0.78741455 -38.362198" fill-rule="nonzero"></path><path stroke="#000000" stroke-width="2.0" stroke-linejoin="round" stroke-linecap="butt" d="m594.31494 276.1273l0.5411377 -26.364716" fill-rule="evenodd"></path><path fill="#000000" stroke="#000000" stroke-width="2.0" stroke-linecap="butt" d="m598.1589 249.83035l-3.116516 -9.142075l-3.4890137 9.0065z" fill-rule="evenodd"></path><path fill="#000000" fill-opacity="0.0" d="m603.54333 260.27255l60.031494 0l0 30.582672l-60.031494 0z" fill-rule="nonzero"></path><path fill="#000000" d="m613.4027 274.08817l0 -1.328125l1.140625 0l0 1.328125l-1.140625 0zm0 7.984375l0 -6.734375l1.140625 0l0 6.734375l-1.140625 0zm2.9610596 0l0 -6.734375l1.03125 0l0 0.953125q0.734375 -1.109375 2.140625 -1.109375q0.609375 0 1.109375 0.21875q0.515625 0.21875 0.765625 0.578125q0.265625 0.34375 0.359375 0.84375q0.0625 0.3125 0.0625 1.109375l0 4.140625l-1.140625 0l0 -4.09375q0 -0.703125 -0.140625 -1.046875q-0.125 -0.34375 -0.46875 -0.546875q-0.328125 -0.21875 -0.78125 -0.21875q-0.734375 0 -1.265625 0.46875q-0.53125 0.453125 -0.53125 1.75l0 3.6875l-1.140625 0zm6.9593506 -2.015625l1.125 -0.171875q0.09375 0.671875 0.53125 1.046875q0.4375 0.359375 1.21875 0.359375q0.78125 0 1.15625 -0.3125q0.390625 -0.328125 0.390625 -0.765625q0 -0.390625 -0.34375 -0.609375q-0.234375 -0.15625 -1.171875 -0.390625q-1.25 -0.3125 -1.734375 -0.546875q-0.484375 -0.234375 -0.734375 -0.640625q-0.25 -0.40625 -0.25 -0.90625q0 -0.453125 0.203125 -0.828125q0.203125 -0.390625 0.5625 -0.640625q0.265625 -0.203125 0.71875 -0.328125q0.46875 -0.140625 1.0 -0.140625q0.78125 0 1.375 0.234375q0.609375 0.21875 0.890625 0.609375q0.296875 0.390625 0.40625 1.046875l-1.125 0.15625q-0.078125 -0.53125 -0.4375 -0.8125q-0.359375 -0.296875 -1.03125 -0.296875q-0.78125 0 -1.125 0.265625q-0.34375 0.25 -0.34375 0.609375q0 0.21875 0.140625 0.390625q0.140625 0.1875 0.4375 0.3125q0.171875 0.0625 1.015625 0.28125q1.21875 0.328125 1.6875 0.53125q0.484375 0.203125 0.75 0.609375q0.28125 0.390625 0.28125 0.96875q0 0.578125 -0.34375 1.078125q-0.328125 0.5 -0.953125 0.78125q-0.625 0.28125 -1.421875 0.28125q-1.3125 0 -2.0 -0.546875q-0.6875 -0.546875 -0.875 -1.625zm11.7265625 -0.15625l1.1875 0.140625q-0.28125 1.046875 -1.046875 1.625q-0.75 0.5625 -1.921875 0.5625q-1.484375 0 -2.359375 -0.90625q-0.859375 -0.921875 -0.859375 -2.5625q0 -1.703125 0.875 -2.640625q0.890625 -0.9375 2.28125 -0.9375q1.359375 0 2.203125 0.921875q0.859375 0.921875 0.859375 2.578125q0 0.109375 0 0.3125l-5.03125 0q0.0625 1.109375 0.625 1.703125q0.5625 0.59375 1.40625 0.59375q0.640625 0 1.078125 -0.328125q0.453125 -0.34375 0.703125 -1.0625zm-3.75 -1.84375l3.765625 0q-0.078125 -0.859375 -0.4375 -1.28125q-0.546875 -0.65625 -1.40625 -0.65625q-0.796875 0 -1.328125 0.53125q-0.53125 0.515625 -0.59375 1.40625zm6.5374756 4.015625l0 -6.734375l1.03125 0l0 1.015625q0.390625 -0.71875 0.71875 -0.9375q0.34375 -0.234375 0.734375 -0.234375q0.578125 0 1.171875 0.359375l-0.390625 1.0625q-0.421875 -0.25 -0.828125 -0.25q-0.375 0 -0.6875 0.234375q-0.296875 0.21875 -0.421875 0.625q-0.1875 0.609375 -0.1875 1.328125l0 3.53125l-1.140625 0zm6.9539795 -1.015625l0.15625 1.0q-0.484375 0.109375 -0.859375 0.109375q-0.625 0 -0.96875 -0.203125q-0.34375 -0.203125 -0.484375 -0.515625q-0.140625 -0.328125 -0.140625 -1.34375l0 -3.890625l-0.828125 0l0 -0.875l0.828125 0l0 -1.671875l1.140625 -0.6875l0 2.359375l1.15625 0l0 0.875l-1.15625 0l0 3.953125q0 0.484375 0.0625 0.625q0.0625 0.140625 0.1875 0.21875q0.140625 0.078125 0.390625 0.078125q0.203125 0 0.515625 -0.03125z" fill-rule="nonzero"></path><path fill="#000000" fill-opacity="0.0" d="m533.8202 238.32414l0 7.4212646l176.06299 0l0 -7.358261" fill-rule="nonzero"></path><path stroke="#93c47d" stroke-width="2.0" stroke-linejoin="round" stroke-linecap="butt" d="m533.8202 238.32414l0 7.4212646l176.06299 0l0 -7.358261" fill-rule="nonzero"></path><path fill="#000000" fill-opacity="0.0" d="m575.6588 238.32414l0 16.053818l176.06299 0l0 -15.990814" fill-rule="nonzero"></path><path stroke="#93c47d" stroke-width="2.0" stroke-linejoin="round" stroke-linecap="butt" d="m575.6588 238.32414l0 16.053818l176.06299 0l0 -15.990814" fill-rule="nonzero"></path><path fill="#000000" fill-opacity="0.0" d="m617.49475 238.32414l0 25.000015l217.88977 0l0 -24.937012" fill-rule="nonzero"></path><path stroke="#93c47d" stroke-width="2.0" stroke-linejoin="round" stroke-linecap="butt" d="m617.49475 238.32414l0 25.000015l217.88977 0l0 -24.937012" fill-rule="nonzero"></path><path fill="#000000" fill-opacity="0.0" d="m659.3294 238.32414l0 35.98033l217.88977 0l0 -35.917328" fill-rule="nonzero"></path><path stroke="#93c47d" stroke-width="2.0" stroke-linejoin="round" stroke-linecap="butt" d="m659.3294 238.32414l0 35.98033l217.88977 0l0 -35.917328" fill-rule="nonzero"></path><path fill="#000000" fill-opacity="0.0" d="m520.1102 210.4147l27.905518 0l0 27.905502l-27.905518 0z" fill-rule="nonzero"></path><path fill="#000000" d="m529.0946 229.16745l3.578125 -9.3125l1.3125 0l3.8125 9.3125l-1.40625 0l-1.078125 -2.8125l-3.890625 0l-1.03125 2.8125l-1.296875 0zm2.6875 -3.828125l3.15625 0l-0.984375 -2.578125q-0.4375 -1.171875 -0.65625 -1.921875q-0.171875 0.890625 -0.5 1.78125l-1.015625 2.71875z" fill-rule="nonzero"></path><path fill="#000000" fill-opacity="0.0" d="m561.70605 210.73491l27.905518 0l0 27.905518l-27.905518 0z" fill-rule="nonzero"></path><path fill="#000000" d="m571.6592 229.48766l0 -9.3125l3.484375 0q1.078125 0 1.71875 0.296875q0.640625 0.28125 1.0 0.875q0.375 0.578125 0.375 1.21875q0 0.59375 -0.328125 1.125q-0.328125 0.515625 -0.96875 0.84375q0.84375 0.25 1.296875 0.84375q0.453125 0.59375 0.453125 1.40625q0 0.65625 -0.28125 1.21875q-0.28125 0.5625 -0.6875 0.875q-0.40625 0.296875 -1.015625 0.453125q-0.609375 0.15625 -1.5 0.15625l-3.546875 0zm1.234375 -5.390625l2.015625 0q0.8125 0 1.171875 -0.109375q0.46875 -0.140625 0.703125 -0.46875q0.234375 -0.328125 0.234375 -0.8125q0 -0.46875 -0.21875 -0.8125q-0.21875 -0.359375 -0.640625 -0.484375q-0.40625 -0.125 -1.40625 -0.125l-1.859375 0l0 2.8125zm0 4.296875l2.3125 0q0.59375 0 0.84375 -0.046875q0.421875 -0.078125 0.703125 -0.25q0.28125 -0.1875 0.46875 -0.515625q0.1875 -0.34375 0.1875 -0.796875q0 -0.515625 -0.265625 -0.890625q-0.265625 -0.390625 -0.75 -0.546875q-0.46875 -0.15625 -1.359375 -0.15625l-2.140625 0l0 3.203125z" fill-rule="nonzero"></path><path fill="#000000" fill-opacity="0.0" d="m603.72705 210.73491l27.905518 0l0 27.905518l-27.905518 0z" fill-rule="nonzero"></path><path fill="#000000" d="m620.3677 226.22203l1.234375 0.3125q-0.390625 1.515625 -1.40625 2.3125q-1.0 0.796875 -2.453125 0.796875q-1.5 0 -2.453125 -0.609375q-0.9375 -0.609375 -1.4375 -1.765625q-0.484375 -1.171875 -0.484375 -2.5q0 -1.453125 0.5625 -2.53125q0.5625 -1.09375 1.578125 -1.65625q1.03125 -0.5625 2.265625 -0.5625q1.390625 0 2.34375 0.71875q0.953125 0.703125 1.328125 2.0l-1.21875 0.28125q-0.328125 -1.015625 -0.9375 -1.46875q-0.609375 -0.46875 -1.546875 -0.46875q-1.078125 0 -1.796875 0.515625q-0.71875 0.515625 -1.015625 1.375q-0.28125 0.859375 -0.28125 1.78125q0 1.1875 0.34375 2.078125q0.34375 0.890625 1.0625 1.328125q0.734375 0.4375 1.59375 0.4375q1.03125 0 1.75 -0.59375q0.71875 -0.609375 0.96875 -1.78125z" fill-rule="nonzero"></path><path fill="#000000" fill-opacity="0.0" d="m645.74805 210.4147l27.905518 0l0 27.905502l-27.905518 0z" fill-rule="nonzero"></path><path fill="#000000" d="m655.74805 229.16745l0 -9.3125l3.203125 0q1.09375 0 1.65625 0.140625q0.8125 0.1875 1.375 0.671875q0.734375 0.609375 1.09375 1.578125q0.375 0.96875 0.375 2.21875q0 1.0625 -0.25 1.890625q-0.25 0.8125 -0.640625 1.34375q-0.390625 0.53125 -0.859375 0.84375q-0.453125 0.3125 -1.109375 0.46875q-0.640625 0.15625 -1.484375 0.15625l-3.359375 0zm1.234375 -1.09375l1.984375 0q0.921875 0 1.4375 -0.171875q0.53125 -0.171875 0.84375 -0.484375q0.4375 -0.4375 0.671875 -1.171875q0.25 -0.75 0.25 -1.796875q0 -1.46875 -0.484375 -2.25q-0.46875 -0.78125 -1.15625 -1.046875q-0.5 -0.1875 -1.59375 -0.1875l-1.953125 0l0 7.109375z" fill-rule="nonzero"></path><path fill="#000000" fill-opacity="0.0" d="m580.3622 276.1286l27.905518 0l0 27.905518l-27.905518 0z" fill-rule="nonzero"></path><path fill="#000000" d="m589.4247 294.88138l3.59375 -4.84375l-3.171875 -4.46875l1.46875 0l1.6875 2.390625q0.53125 0.75 0.75 1.140625q0.3125 -0.5 0.734375 -1.0625l1.875 -2.46875l1.328125 0l-3.265625 4.390625l3.53125 4.921875l-1.53125 0l-2.34375 -3.3125q-0.1875 -0.296875 -0.40625 -0.625q-0.3125 0.5 -0.4375 0.6875l-2.34375 3.25l-1.46875 0z" fill-rule="nonzero"></path><path fill="#000000" fill-opacity="0.0" d="m695.9344 210.4147l27.905518 0l0 27.905502l-27.905518 0z" fill-rule="nonzero"></path><path fill="#000000" d="m704.91876 229.16745l3.578125 -9.3125l1.3125 0l3.8125 9.3125l-1.40625 0l-1.078125 -2.8125l-3.890625 0l-1.03125 2.8125l-1.296875 0zm2.6875 -3.828125l3.15625 0l-0.984375 -2.578125q-0.4375 -1.171875 -0.65625 -1.921875q-0.171875 0.890625 -0.5 1.78125l-1.015625 2.71875z" fill-rule="nonzero"></path><path fill="#000000" fill-opacity="0.0" d="m737.77167 210.4147l27.905518 0l0 27.905502l-27.905518 0z" fill-rule="nonzero"></path><path fill="#000000" d="m747.7248 229.16745l0 -9.3125l3.484375 0q1.078125 0 1.71875 0.296875q0.640625 0.28125 1.0 0.875q0.375 0.578125 0.375 1.21875q0 0.59375 -0.328125 1.125q-0.328125 0.515625 -0.96875 0.84375q0.84375 0.25 1.296875 0.84375q0.453125 0.59375 0.453125 1.40625q0 0.65625 -0.28125 1.21875q-0.28125 0.5625 -0.6875 0.875q-0.40625 0.296875 -1.015625 0.453125q-0.609375 0.15625 -1.5 0.15625l-3.546875 0zm1.234375 -5.390625l2.015625 0q0.8125 0 1.171875 -0.109375q0.46875 -0.140625 0.703125 -0.46875q0.234375 -0.328125 0.234375 -0.8125q0 -0.46875 -0.21875 -0.8125q-0.21875 -0.359375 -0.640625 -0.484375q-0.40625 -0.125 -1.40625 -0.125l-1.859375 0l0 2.8125zm0 4.296875l2.3125 0q0.59375 0 0.84375 -0.046875q0.421875 -0.078125 0.703125 -0.25q0.28125 -0.1875 0.46875 -0.515625q0.1875 -0.34375 0.1875 -0.796875q0 -0.515625 -0.265625 -0.890625q-0.265625 -0.390625 -0.75 -0.546875q-0.46875 -0.15625 -1.359375 -0.15625l-2.140625 0l0 3.203125z" fill-rule="nonzero"></path><path fill="#000000" fill-opacity="0.0" d="m779.6076 210.4147l27.905518 0l0 27.905502l-27.905518 0z" fill-rule="nonzero"></path><path fill="#000000" d="m788.6701 229.16745l3.59375 -4.84375l-3.171875 -4.46875l1.46875 0l1.6875 2.390625q0.53125 0.75 0.75 1.140625q0.3125 -0.5 0.734375 -1.0625l1.875 -2.46875l1.328125 0l-3.265625 4.390625l3.53125 4.921875l-1.53125 0l-2.34375 -3.3125q-0.1875 -0.296875 -0.40625 -0.625q-0.3125 0.5 -0.4375 0.6875l-2.34375 3.25l-1.46875 0z" fill-rule="nonzero"></path><path fill="#000000" fill-opacity="0.0" d="m863.2769 210.4147l27.905518 0l0 27.905502l-27.905518 0z" fill-rule="nonzero"></path><path fill="#000000" d="m873.2769 229.16745l0 -9.3125l3.203125 0q1.09375 0 1.65625 0.140625q0.8125 0.1875 1.375 0.671875q0.734375 0.609375 1.09375 1.578125q0.375 0.96875 0.375 2.21875q0 1.0625 -0.25 1.890625q-0.25 0.8125 -0.640625 1.34375q-0.390625 0.53125 -0.859375 0.84375q-0.453125 0.3125 -1.109375 0.46875q-0.640625 0.15625 -1.484375 0.15625l-3.359375 0zm1.234375 -1.09375l1.984375 0q0.921875 0 1.4375 -0.171875q0.53125 -0.171875 0.84375 -0.484375q0.4375 -0.4375 0.671875 -1.171875q0.25 -0.75 0.25 -1.796875q0 -1.46875 -0.484375 -2.25q-0.46875 -0.78125 -1.15625 -1.046875q-0.5 -0.1875 -1.59375 -0.1875l-1.953125 0l0 7.109375z" fill-rule="nonzero"></path><path fill="#000000" fill-opacity="0.0" d="m821.44226 210.73491l27.905518 0l0 27.905518l-27.905518 0z" fill-rule="nonzero"></path><path fill="#000000" d="m838.0829 226.22203l1.234375 0.3125q-0.390625 1.515625 -1.40625 2.3125q-1.0 0.796875 -2.453125 0.796875q-1.5 0 -2.453125 -0.609375q-0.9375 -0.609375 -1.4375 -1.765625q-0.484375 -1.171875 -0.484375 -2.5q0 -1.453125 0.5625 -2.53125q0.5625 -1.09375 1.578125 -1.65625q1.03125 -0.5625 2.265625 -0.5625q1.390625 0 2.34375 0.71875q0.953125 0.703125 1.328125 2.0l-1.21875 0.28125q-0.328125 -1.015625 -0.9375 -1.46875q-0.609375 -0.46875 -1.546875 -0.46875q-1.078125 0 -1.796875 0.515625q-0.71875 0.515625 -1.015625 1.375q-0.28125 0.859375 -0.28125 1.78125q0 1.1875 0.34375 2.078125q0.34375 0.890625 1.0625 1.328125q0.734375 0.4375 1.59375 0.4375q1.03125 0 1.75 -0.59375q0.71875 -0.609375 0.96875 -1.78125z" fill-rule="nonzero"></path></g></svg>

