<?xml version="1.0" standalone="yes"?>

<svg version="1.1" viewBox="0.0 0.0 933.8293963254594 400.8031496062992" fill="none" stroke="none" stroke-linecap="square" stroke-miterlimit="10" xmlns="http://www.w3.org/2000/svg" xmlns:xlink="http://www.w3.org/1999/xlink"><clipPath id="p.0"><path d="m0 0l933.8294 0l0 400.80316l-933.8294 0l0 -400.80316z" clip-rule="nonzero"></path></clipPath><g clip-path="url(#p.0)"><path fill="#000000" fill-opacity="0.0" d="m0 0l933.8294 0l0 400.80316l-933.8294 0z" fill-rule="nonzero"></path><path fill="#cfe2f3" d="m114.661415 94.52756l0 0c0 -7.7058945 6.2468643 -13.952751 13.952751 -13.952751l0 0c3.7005005 0 7.2494507 1.4700165 9.866089 4.0866623c2.6166534 2.6166534 4.08667 6.1655884 4.08667 9.866089l0 0c0 7.7058945 -6.2468567 13.952759 -13.952759 13.952759l0 0c-7.705887 0 -13.952751 -6.2468643 -13.952751 -13.952759z" fill-rule="nonzero"></path><path stroke="#000000" stroke-width="2.0" stroke-linejoin="round" stroke-linecap="butt" d="m114.661415 94.52756l0 0c0 -7.7058945 6.2468643 -13.952751 13.952751 -13.952751l0 0c3.7005005 0 7.2494507 1.4700165 9.866089 4.0866623c2.6166534 2.6166534 4.08667 6.1655884 4.08667 9.866089l0 0c0 7.7058945 -6.2468567 13.952759 -13.952759 13.952759l0 0c-7.705887 0 -13.952751 -6.2468643 -13.952751 -13.952759z" fill-rule="nonzero"></path><path fill="#cfe2f3" d="m88.33071 159.6063l0 0c0 -7.705887 6.2468567 -13.952744 13.952751 -13.952744l0 0c3.7005005 0 7.249443 1.4700165 9.866089 4.0866547c2.6166534 2.6166534 4.08667 6.1655884 4.08667 9.866089l0 0c0 7.705902 -6.2468643 13.952759 -13.952759 13.952759l0 0c-7.7058945 0 -13.952751 -6.2468567 -13.952751 -13.952759z" fill-rule="nonzero"></path><path stroke="#000000" stroke-width="2.0" stroke-linejoin="round" stroke-linecap="butt" d="m88.33071 159.6063l0 0c0 -7.705887 6.2468567 -13.952744 13.952751 -13.952744l0 0c3.7005005 0 7.249443 1.4700165 9.866089 4.0866547c2.6166534 2.6166534 4.08667 6.1655884 4.08667 9.866089l0 0c0 7.705902 -6.2468643 13.952759 -13.952759 13.952759l0 0c-7.7058945 0 -13.952751 -6.2468567 -13.952751 -13.952759z" fill-rule="nonzero"></path><path fill="#cfe2f3" d="m137.39108 159.6063l0 0c0 -7.705887 6.2468567 -13.952744 13.952744 -13.952744l0 0c3.7005005 0 7.2494507 1.4700165 9.866089 4.0866547c2.6166534 2.6166534 4.08667 6.1655884 4.08667 9.866089l0 0c0 7.705902 -6.2468567 13.952759 -13.952759 13.952759l0 0c-7.705887 0 -13.952744 -6.2468567 -13.952744 -13.952759z" fill-rule="nonzero"></path><path stroke="#000000" stroke-width="2.0" stroke-linejoin="round" stroke-linecap="butt" d="m137.39108 159.6063l0 0c0 -7.705887 6.2468567 -13.952744 13.952744 -13.952744l0 0c3.7005005 0 7.2494507 1.4700165 9.866089 4.0866547c2.6166534 2.6166534 4.08667 6.1655884 4.08667 9.866089l0 0c0 7.705902 -6.2468567 13.952759 -13.952759 13.952759l0 0c-7.705887 0 -13.952744 -6.2468567 -13.952744 -13.952759z" fill-rule="nonzero"></path><path fill="#cfe2f3" d="m59.654854 224.68504l0 0c0 -7.705902 6.2468643 -13.952759 13.952759 -13.952759l0 0c3.7005005 0 7.2494354 1.4700165 9.866089 4.08667c2.6166458 2.6166534 4.0866623 6.1655884 4.0866623 9.866089l0 0c0 7.705887 -6.2468567 13.952759 -13.952751 13.952759l0 0c-7.7058945 0 -13.952759 -6.246872 -13.952759 -13.952759z" fill-rule="nonzero"></path><path stroke="#000000" stroke-width="2.0" stroke-linejoin="round" stroke-linecap="butt" d="m59.654854 224.68504l0 0c0 -7.705902 6.2468643 -13.952759 13.952759 -13.952759l0 0c3.7005005 0 7.2494354 1.4700165 9.866089 4.08667c2.6166458 2.6166534 4.0866623 6.1655884 4.0866623 9.866089l0 0c0 7.705887 -6.2468567 13.952759 -13.952751 13.952759l0 0c-7.7058945 0 -13.952759 -6.246872 -13.952759 -13.952759z" fill-rule="nonzero"></path><path fill="#cfe2f3" d="m108.73753 224.68504l0 0c0 -7.705902 6.2468643 -13.952759 13.952759 -13.952759l0 0c3.7005005 0 7.2494354 1.4700165 9.866089 4.08667c2.6166382 2.6166534 4.08667 6.1655884 4.08667 9.866089l0 0c0 7.705887 -6.246872 13.952759 -13.952759 13.952759l0 0c-7.7058945 0 -13.952759 -6.246872 -13.952759 -13.952759z" fill-rule="nonzero"></path><path stroke="#000000" stroke-width="2.0" stroke-linejoin="round" stroke-linecap="butt" d="m108.73753 224.68504l0 0c0 -7.705902 6.2468643 -13.952759 13.952759 -13.952759l0 0c3.7005005 0 7.2494354 1.4700165 9.866089 4.08667c2.6166382 2.6166534 4.08667 6.1655884 4.08667 9.866089l0 0c0 7.705887 -6.246872 13.952759 -13.952759 13.952759l0 0c-7.7058945 0 -13.952759 -6.246872 -13.952759 -13.952759z" fill-rule="nonzero"></path><path fill="#cfe2f3" d="m150.57349 224.68504l0 0c0 -7.705902 6.246872 -13.952759 13.952759 -13.952759l0 0c3.7005005 0 7.2494354 1.4700165 9.866089 4.08667c2.6166534 2.6166534 4.08667 6.1655884 4.08667 9.866089l0 0c0 7.705887 -6.2468567 13.952759 -13.952759 13.952759l0 0c-7.705887 0 -13.952759 -6.246872 -13.952759 -13.952759z" fill-rule="nonzero"></path><path stroke="#000000" stroke-width="2.0" stroke-linejoin="round" stroke-linecap="butt" d="m150.57349 224.68504l0 0c0 -7.705902 6.246872 -13.952759 13.952759 -13.952759l0 0c3.7005005 0 7.2494354 1.4700165 9.866089 4.08667c2.6166534 2.6166534 4.08667 6.1655884 4.08667 9.866089l0 0c0 7.705887 -6.2468567 13.952759 -13.952759 13.952759l0 0c-7.705887 0 -13.952759 -6.246872 -13.952759 -13.952759z" fill-rule="nonzero"></path><path fill="#cfe2f3" d="m192.40814 224.68504l0 0c0 -7.705902 6.2468567 -13.952759 13.952744 -13.952759l0 0c3.7005005 0 7.2494507 1.4700165 9.866089 4.08667c2.6166534 2.6166534 4.08667 6.1655884 4.08667 9.866089l0 0c0 7.705887 -6.2468567 13.952759 -13.952759 13.952759l0 0c-7.705887 0 -13.952744 -6.246872 -13.952744 -13.952759z" fill-rule="nonzero"></path><path stroke="#000000" stroke-width="2.0" stroke-linejoin="round" stroke-linecap="butt" d="m192.40814 224.68504l0 0c0 -7.705902 6.2468567 -13.952759 13.952744 -13.952759l0 0c3.7005005 0 7.2494507 1.4700165 9.866089 4.08667c2.6166534 2.6166534 4.08667 6.1655884 4.08667 9.866089l0 0c0 7.705887 -6.2468567 13.952759 -13.952759 13.952759l0 0c-7.705887 0 -13.952744 -6.246872 -13.952744 -13.952759z" fill-rule="nonzero"></path><path fill="#000000" fill-opacity="0.0" d="m128.61417 108.480316l-26.330704 37.16536" fill-rule="nonzero"></path><path stroke="#000000" stroke-width="2.0" stroke-linejoin="round" stroke-linecap="butt" d="m128.61417 108.480316l-26.330704 37.16536" fill-rule="nonzero"></path><path fill="#000000" fill-opacity="0.0" d="m102.28346 173.55905l-28.661415 37.16536" fill-rule="nonzero"></path><path stroke="#000000" stroke-width="2.0" stroke-linejoin="round" stroke-linecap="butt" d="m102.28346 173.55905l-28.661415 37.16536" fill-rule="nonzero"></path><path fill="#000000" fill-opacity="0.0" d="m128.61417 108.480316l22.740158 37.16536" fill-rule="nonzero"></path><path stroke="#000000" stroke-width="2.0" stroke-linejoin="round" stroke-linecap="butt" d="m128.61417 108.480316l22.740158 37.16536" fill-rule="nonzero"></path><path fill="#000000" fill-opacity="0.0" d="m151.34383 173.55905l-28.661415 37.16536" fill-rule="nonzero"></path><path stroke="#000000" stroke-width="2.0" stroke-linejoin="round" stroke-linecap="butt" d="m151.34383 173.55905l-28.661415 37.16536" fill-rule="nonzero"></path><path fill="#000000" fill-opacity="0.0" d="m151.34383 173.55905l13.196854 37.16536" fill-rule="nonzero"></path><path stroke="#000000" stroke-width="2.0" stroke-linejoin="round" stroke-linecap="butt" d="m151.34383 173.55905l13.196854 37.16536" fill-rule="nonzero"></path><path fill="#000000" fill-opacity="0.0" d="m151.34383 173.55905l55.02362 37.16536" fill-rule="nonzero"></path><path stroke="#000000" stroke-width="2.0" stroke-linejoin="round" stroke-linecap="butt" d="m151.34383 173.55905l55.02362 37.16536" fill-rule="nonzero"></path><path fill="#cfe2f3" d="m331.0866 94.52756l0 0c0 -7.7058945 6.2468567 -13.952751 13.952759 -13.952751l0 0c3.7005005 0 7.2494507 1.4700165 9.866089 4.0866623c2.6166382 2.6166534 4.08667 6.1655884 4.08667 9.866089l0 0c0 7.7058945 -6.2468567 13.952759 -13.952759 13.952759l0 0c-7.705902 0 -13.952759 -6.2468643 -13.952759 -13.952759z" fill-rule="nonzero"></path><path stroke="#000000" stroke-width="2.0" stroke-linejoin="round" stroke-linecap="butt" d="m331.0866 94.52756l0 0c0 -7.7058945 6.2468567 -13.952751 13.952759 -13.952751l0 0c3.7005005 0 7.2494507 1.4700165 9.866089 4.0866623c2.6166382 2.6166534 4.08667 6.1655884 4.08667 9.866089l0 0c0 7.7058945 -6.2468567 13.952759 -13.952759 13.952759l0 0c-7.705902 0 -13.952759 -6.2468643 -13.952759 -13.952759z" fill-rule="nonzero"></path><path fill="#cfe2f3" d="m304.75592 159.6063l0 0c0 -7.705887 6.2468567 -13.952744 13.952728 -13.952744l0 0c3.7005005 0 7.2494507 1.4700165 9.866089 4.0866547c2.6166687 2.6166534 4.08667 6.1655884 4.08667 9.866089l0 0c0 7.705902 -6.2468567 13.952759 -13.952759 13.952759l0 0c-7.7058716 0 -13.952728 -6.2468567 -13.952728 -13.952759z" fill-rule="nonzero"></path><path stroke="#000000" stroke-width="2.0" stroke-linejoin="round" stroke-linecap="butt" d="m304.75592 159.6063l0 0c0 -7.705887 6.2468567 -13.952744 13.952728 -13.952744l0 0c3.7005005 0 7.2494507 1.4700165 9.866089 4.0866547c2.6166687 2.6166534 4.08667 6.1655884 4.08667 9.866089l0 0c0 7.705902 -6.2468567 13.952759 -13.952759 13.952759l0 0c-7.7058716 0 -13.952728 -6.2468567 -13.952728 -13.952759z" fill-rule="nonzero"></path><path fill="#cfe2f3" d="m353.81628 159.6063l0 0c0 -7.705887 6.2468567 -13.952744 13.952759 -13.952744l0 0c3.7005005 0 7.24942 1.4700165 9.866089 4.0866547c2.6166382 2.6166534 4.0866394 6.1655884 4.0866394 9.866089l0 0c0 7.705902 -6.2468567 13.952759 -13.952728 13.952759l0 0c-7.705902 0 -13.952759 -6.2468567 -13.952759 -13.952759z" fill-rule="nonzero"></path><path stroke="#000000" stroke-width="2.0" stroke-linejoin="round" stroke-linecap="butt" d="m353.81628 159.6063l0 0c0 -7.705887 6.2468567 -13.952744 13.952759 -13.952744l0 0c3.7005005 0 7.24942 1.4700165 9.866089 4.0866547c2.6166382 2.6166534 4.0866394 6.1655884 4.0866394 9.866089l0 0c0 7.705902 -6.2468567 13.952759 -13.952728 13.952759l0 0c-7.705902 0 -13.952759 -6.2468567 -13.952759 -13.952759z" fill-rule="nonzero"></path><path fill="#cfe2f3" d="m276.08005 224.68504l0 0c0 -7.705902 6.2468567 -13.952759 13.952759 -13.952759l0 0c3.7005005 0 7.2494507 1.4700165 9.866089 4.08667c2.6166382 2.6166534 4.08667 6.1655884 4.08667 9.866089l0 0c0 7.705887 -6.2468567 13.952759 -13.952759 13.952759l0 0c-7.705902 0 -13.952759 -6.246872 -13.952759 -13.952759z" fill-rule="nonzero"></path><path stroke="#000000" stroke-width="2.0" stroke-linejoin="round" stroke-linecap="butt" d="m276.08005 224.68504l0 0c0 -7.705902 6.2468567 -13.952759 13.952759 -13.952759l0 0c3.7005005 0 7.2494507 1.4700165 9.866089 4.08667c2.6166382 2.6166534 4.08667 6.1655884 4.08667 9.866089l0 0c0 7.705887 -6.2468567 13.952759 -13.952759 13.952759l0 0c-7.705902 0 -13.952759 -6.246872 -13.952759 -13.952759z" fill-rule="nonzero"></path><path fill="#cfe2f3" d="m325.16272 224.68504l0 0c0 -7.705902 6.2468567 -13.952759 13.952759 -13.952759l0 0c3.7005005 0 7.2494507 1.4700165 9.866089 4.08667c2.6166687 2.6166534 4.08667 6.1655884 4.08667 9.866089l0 0c0 7.705887 -6.2468567 13.952759 -13.952759 13.952759l0 0c-7.705902 0 -13.952759 -6.246872 -13.952759 -13.952759z" fill-rule="nonzero"></path><path stroke="#000000" stroke-width="2.0" stroke-linejoin="round" stroke-linecap="butt" d="m325.16272 224.68504l0 0c0 -7.705902 6.2468567 -13.952759 13.952759 -13.952759l0 0c3.7005005 0 7.2494507 1.4700165 9.866089 4.08667c2.6166687 2.6166534 4.08667 6.1655884 4.08667 9.866089l0 0c0 7.705887 -6.2468567 13.952759 -13.952759 13.952759l0 0c-7.705902 0 -13.952759 -6.246872 -13.952759 -13.952759z" fill-rule="nonzero"></path><path fill="#cfe2f3" d="m366.9987 224.68504l0 0c0 -7.705902 6.2468567 -13.952759 13.952759 -13.952759l0 0c3.7005005 0 7.2494507 1.4700165 9.866089 4.08667c2.6166382 2.6166534 4.08667 6.1655884 4.08667 9.866089l0 0c0 7.705887 -6.2468567 13.952759 -13.952759 13.952759l0 0c-7.705902 0 -13.952759 -6.246872 -13.952759 -13.952759z" fill-rule="nonzero"></path><path stroke="#000000" stroke-width="2.0" stroke-linejoin="round" stroke-linecap="butt" d="m366.9987 224.68504l0 0c0 -7.705902 6.2468567 -13.952759 13.952759 -13.952759l0 0c3.7005005 0 7.2494507 1.4700165 9.866089 4.08667c2.6166382 2.6166534 4.08667 6.1655884 4.08667 9.866089l0 0c0 7.705887 -6.2468567 13.952759 -13.952759 13.952759l0 0c-7.705902 0 -13.952759 -6.246872 -13.952759 -13.952759z" fill-rule="nonzero"></path><path fill="#cfe2f3" d="m402.87534 159.6063l0 0c0 -7.705887 6.2468567 -13.952744 13.952759 -13.952744l0 0c3.7005005 0 7.24942 1.4700165 9.866089 4.0866547c2.6166382 2.6166534 4.08667 6.1655884 4.08667 9.866089l0 0c0 7.705902 -6.246887 13.952759 -13.952759 13.952759l0 0c-7.705902 0 -13.952759 -6.2468567 -13.952759 -13.952759z" fill-rule="nonzero"></path><path stroke="#000000" stroke-width="2.0" stroke-linejoin="round" stroke-linecap="butt" d="m402.87534 159.6063l0 0c0 -7.705887 6.2468567 -13.952744 13.952759 -13.952744l0 0c3.7005005 0 7.24942 1.4700165 9.866089 4.0866547c2.6166382 2.6166534 4.08667 6.1655884 4.08667 9.866089l0 0c0 7.705902 -6.246887 13.952759 -13.952759 13.952759l0 0c-7.705902 0 -13.952759 -6.2468567 -13.952759 -13.952759z" fill-rule="nonzero"></path><path fill="#000000" fill-opacity="0.0" d="m345.03937 108.480316l-26.330719 37.16536" fill-rule="nonzero"></path><path stroke="#000000" stroke-width="2.0" stroke-linejoin="round" stroke-linecap="butt" d="m345.03937 108.480316l-26.330719 37.16536" fill-rule="nonzero"></path><path fill="#000000" fill-opacity="0.0" d="m318.70865 173.55905l-28.661407 37.16536" fill-rule="nonzero"></path><path stroke="#000000" stroke-width="2.0" stroke-linejoin="round" stroke-linecap="butt" d="m318.70865 173.55905l-28.661407 37.16536" fill-rule="nonzero"></path><path fill="#000000" fill-opacity="0.0" d="m345.03937 108.480316l22.740173 37.16536" fill-rule="nonzero"></path><path stroke="#000000" stroke-width="2.0" stroke-linejoin="round" stroke-linecap="butt" d="m345.03937 108.480316l22.740173 37.16536" fill-rule="nonzero"></path><path fill="#000000" fill-opacity="0.0" d="m318.70865 173.55905l20.409454 37.16536" fill-rule="nonzero"></path><path stroke="#000000" stroke-width="2.0" stroke-linejoin="round" stroke-linecap="butt" d="m318.70865 173.55905l20.409454 37.16536" fill-rule="nonzero"></path><path fill="#000000" fill-opacity="0.0" d="m367.76904 173.55905l13.196838 37.16536" fill-rule="nonzero"></path><path stroke="#000000" stroke-width="2.0" stroke-linejoin="round" stroke-linecap="butt" d="m367.76904 173.55905l13.196838 37.16536" fill-rule="nonzero"></path><path fill="#000000" fill-opacity="0.0" d="m345.03937 108.480316l71.77954 37.16536" fill-rule="nonzero"></path><path stroke="#000000" stroke-width="2.0" stroke-linejoin="round" stroke-linecap="butt" d="m345.03937 108.480316l71.77954 37.16536" fill-rule="nonzero"></path><path fill="#000000" fill-opacity="0.0" d="m128.61417 80.57481l0 -25.000004l216.44095 0l0 25.062992" fill-rule="nonzero"></path><path stroke="#93c47d" stroke-width="2.0" stroke-linejoin="round" stroke-linecap="butt" d="m128.61417 80.57481l0 -25.000004l216.44095 0l0 25.062992" fill-rule="nonzero"></path><path fill="#000000" fill-opacity="0.0" d="m102.28346 145.65355l0 -25.000008l216.44093 0l0 25.062996" fill-rule="nonzero"></path><path stroke="#93c47d" stroke-width="2.0" stroke-linejoin="round" stroke-linecap="butt" d="m102.28346 145.65355l0 -25.000008l216.44093 0l0 25.062996" fill-rule="nonzero"></path><path fill="#000000" fill-opacity="0.0" d="m73.60761 238.6378l0 24.999985l216.44095 0l0 -24.936996" fill-rule="nonzero"></path><path stroke="#93c47d" stroke-width="2.0" stroke-linejoin="round" stroke-linecap="butt" d="m73.60761 238.6378l0 24.999985l216.44095 0l0 -24.936996" fill-rule="nonzero"></path><path fill="#000000" fill-opacity="0.0" d="m151.34383 145.65355l0 -13.341217l216.44096 0l0 13.404205" fill-rule="nonzero"></path><path stroke="#93c47d" stroke-width="2.0" stroke-linejoin="round" stroke-linecap="butt" d="m151.34383 145.65355l0 -13.341217l216.44096 0l0 13.404205" fill-rule="nonzero"></path><path fill="#000000" fill-opacity="0.0" d="m122.69029 238.6378l0 36.139114l216.44093 0l0 -36.076126" fill-rule="nonzero"></path><path stroke="#e06666" stroke-width="2.0" stroke-linejoin="round" stroke-linecap="butt" d="m122.69029 238.6378l0 36.139114l216.44093 0l0 -36.076126" fill-rule="nonzero"></path><path fill="#000000" fill-opacity="0.0" d="m206.36089 210.73228l0 -18.879257l210.45671 0l0 -18.286102" fill-rule="nonzero"></path><path stroke="#e06666" stroke-width="2.0" stroke-linejoin="round" stroke-linecap="butt" d="m206.36089 210.73228l0 -18.879257l210.45671 0l0 -18.286102" fill-rule="nonzero"></path><path fill="#000000" fill-opacity="0.0" d="m164.52625 238.6378l0 44.40419l216.44095 0l0 -44.3412" fill-rule="nonzero"></path><path stroke="#93c47d" stroke-width="2.0" stroke-linejoin="round" stroke-linecap="butt" d="m164.52625 238.6378l0 44.40419l216.44095 0l0 -44.3412" fill-rule="nonzero"></path><path fill="#cfe2f3" d="m556.0026 94.52756l0 0c0 -7.7058945 6.246887 -13.952751 13.952759 -13.952751l0 0c3.7005005 0 7.2494507 1.4700165 9.866089 4.0866623c2.6166382 2.6166534 4.08667 6.1655884 4.08667 9.866089l0 0c0 7.7058945 -6.246887 13.952759 -13.952759 13.952759l0 0c-7.7058716 0 -13.952759 -6.2468643 -13.952759 -13.952759z" fill-rule="nonzero"></path><path stroke="#000000" stroke-width="2.0" stroke-linejoin="round" stroke-linecap="butt" d="m556.0026 94.52756l0 0c0 -7.7058945 6.246887 -13.952751 13.952759 -13.952751l0 0c3.7005005 0 7.2494507 1.4700165 9.866089 4.0866623c2.6166382 2.6166534 4.08667 6.1655884 4.08667 9.866089l0 0c0 7.7058945 -6.246887 13.952759 -13.952759 13.952759l0 0c-7.7058716 0 -13.952759 -6.2468643 -13.952759 -13.952759z" fill-rule="nonzero"></path><path fill="#cfe2f3" d="m529.67194 159.6063l0 0c0 -7.705887 6.246826 -13.952744 13.952759 -13.952744l0 0c3.7005005 0 7.2493896 1.4700165 9.866089 4.0866547c2.6166382 2.6166534 4.08667 6.1655884 4.08667 9.866089l0 0c0 7.705902 -6.246887 13.952759 -13.952759 13.952759l0 0c-7.7059326 0 -13.952759 -6.2468567 -13.952759 -13.952759z" fill-rule="nonzero"></path><path stroke="#000000" stroke-width="2.0" stroke-linejoin="round" stroke-linecap="butt" d="m529.67194 159.6063l0 0c0 -7.705887 6.246826 -13.952744 13.952759 -13.952744l0 0c3.7005005 0 7.2493896 1.4700165 9.866089 4.0866547c2.6166382 2.6166534 4.08667 6.1655884 4.08667 9.866089l0 0c0 7.705902 -6.246887 13.952759 -13.952759 13.952759l0 0c-7.7059326 0 -13.952759 -6.2468567 -13.952759 -13.952759z" fill-rule="nonzero"></path><path fill="#cfe2f3" d="m578.7323 159.6063l0 0c0 -7.705887 6.246826 -13.952744 13.952759 -13.952744l0 0c3.7005005 0 7.2493896 1.4700165 9.866089 4.0866547c2.6166382 2.6166534 4.08667 6.1655884 4.08667 9.866089l0 0c0 7.705902 -6.246887 13.952759 -13.952759 13.952759l0 0c-7.7059326 0 -13.952759 -6.2468567 -13.952759 -13.952759z" fill-rule="nonzero"></path><path stroke="#000000" stroke-width="2.0" stroke-linejoin="round" stroke-linecap="butt" d="m578.7323 159.6063l0 0c0 -7.705887 6.246826 -13.952744 13.952759 -13.952744l0 0c3.7005005 0 7.2493896 1.4700165 9.866089 4.0866547c2.6166382 2.6166534 4.08667 6.1655884 4.08667 9.866089l0 0c0 7.705902 -6.246887 13.952759 -13.952759 13.952759l0 0c-7.7059326 0 -13.952759 -6.2468567 -13.952759 -13.952759z" fill-rule="nonzero"></path><path fill="#cfe2f3" d="m500.99606 224.68504l0 0c0 -7.705902 6.2468567 -13.952759 13.952728 -13.952759l0 0c3.7005005 0 7.2494507 1.4700165 9.866089 4.08667c2.6166992 2.6166534 4.08667 6.1655884 4.08667 9.866089l0 0c0 7.705887 -6.246826 13.952759 -13.952759 13.952759l0 0c-7.7058716 0 -13.952728 -6.246872 -13.952728 -13.952759z" fill-rule="nonzero"></path><path stroke="#000000" stroke-width="2.0" stroke-linejoin="round" stroke-linecap="butt" d="m500.99606 224.68504l0 0c0 -7.705902 6.2468567 -13.952759 13.952728 -13.952759l0 0c3.7005005 0 7.2494507 1.4700165 9.866089 4.08667c2.6166992 2.6166534 4.08667 6.1655884 4.08667 9.866089l0 0c0 7.705887 -6.246826 13.952759 -13.952759 13.952759l0 0c-7.7058716 0 -13.952728 -6.246872 -13.952728 -13.952759z" fill-rule="nonzero"></path><path fill="#cfe2f3" d="m550.07874 224.68504l0 0c0 -7.705902 6.246887 -13.952759 13.952759 -13.952759l0 0c3.7005005 0 7.2494507 1.4700165 9.866089 4.08667c2.6166382 2.6166534 4.08667 6.1655884 4.08667 9.866089l0 0c0 7.705887 -6.246887 13.952759 -13.952759 13.952759l0 0c-7.7058716 0 -13.952759 -6.246872 -13.952759 -13.952759z" fill-rule="nonzero"></path><path stroke="#000000" stroke-width="2.0" stroke-linejoin="round" stroke-linecap="butt" d="m550.07874 224.68504l0 0c0 -7.705902 6.246887 -13.952759 13.952759 -13.952759l0 0c3.7005005 0 7.2494507 1.4700165 9.866089 4.08667c2.6166382 2.6166534 4.08667 6.1655884 4.08667 9.866089l0 0c0 7.705887 -6.246887 13.952759 -13.952759 13.952759l0 0c-7.7058716 0 -13.952759 -6.246872 -13.952759 -13.952759z" fill-rule="nonzero"></path><path fill="#cfe2f3" d="m591.9147 224.68504l0 0c0 -7.705902 6.246887 -13.952759 13.952759 -13.952759l0 0c3.7005005 0 7.2494507 1.4700165 9.866089 4.08667c2.6166992 2.6166534 4.08667 6.1655884 4.08667 9.866089l0 0c0 7.705887 -6.246826 13.952759 -13.952759 13.952759l0 0c-7.7058716 0 -13.952759 -6.246872 -13.952759 -13.952759z" fill-rule="nonzero"></path><path stroke="#000000" stroke-width="2.0" stroke-linejoin="round" stroke-linecap="butt" d="m591.9147 224.68504l0 0c0 -7.705902 6.246887 -13.952759 13.952759 -13.952759l0 0c3.7005005 0 7.2494507 1.4700165 9.866089 4.08667c2.6166992 2.6166534 4.08667 6.1655884 4.08667 9.866089l0 0c0 7.705887 -6.246826 13.952759 -13.952759 13.952759l0 0c-7.7058716 0 -13.952759 -6.246872 -13.952759 -13.952759z" fill-rule="nonzero"></path><path fill="#cfe2f3" d="m633.7493 224.68504l0 0c0 -7.705902 6.246887 -13.952759 13.952759 -13.952759l0 0c3.7005005 0 7.2494507 1.4700165 9.866089 4.08667c2.6166382 2.6166534 4.08667 6.1655884 4.08667 9.866089l0 0c0 7.705887 -6.246826 13.952759 -13.952759 13.952759l0 0c-7.7058716 0 -13.952759 -6.246872 -13.952759 -13.952759z" fill-rule="nonzero"></path><path stroke="#000000" stroke-width="2.0" stroke-linejoin="round" stroke-linecap="butt" d="m633.7493 224.68504l0 0c0 -7.705902 6.246887 -13.952759 13.952759 -13.952759l0 0c3.7005005 0 7.2494507 1.4700165 9.866089 4.08667c2.6166382 2.6166534 4.08667 6.1655884 4.08667 9.866089l0 0c0 7.705887 -6.246826 13.952759 -13.952759 13.952759l0 0c-7.7058716 0 -13.952759 -6.246872 -13.952759 -13.952759z" fill-rule="nonzero"></path><path fill="#000000" fill-opacity="0.0" d="m569.9554 108.480316l-26.330688 37.16536" fill-rule="nonzero"></path><path stroke="#000000" stroke-width="2.0" stroke-linejoin="round" stroke-linecap="butt" d="m569.9554 108.480316l-26.330688 37.16536" fill-rule="nonzero"></path><path fill="#000000" fill-opacity="0.0" d="m543.6247 173.55905l-28.661438 37.16536" fill-rule="nonzero"></path><path stroke="#000000" stroke-width="2.0" stroke-linejoin="round" stroke-linecap="butt" d="m543.6247 173.55905l-28.661438 37.16536" fill-rule="nonzero"></path><path fill="#000000" fill-opacity="0.0" d="m569.9554 108.480316l22.740173 37.16536" fill-rule="nonzero"></path><path stroke="#000000" stroke-width="2.0" stroke-linejoin="round" stroke-linecap="butt" d="m569.9554 108.480316l22.740173 37.16536" fill-rule="nonzero"></path><path fill="#000000" fill-opacity="0.0" d="m592.68506 173.55905l-28.661438 37.16536" fill-rule="nonzero"></path><path stroke="#000000" stroke-width="2.0" stroke-linejoin="round" stroke-linecap="butt" d="m592.68506 173.55905l-28.661438 37.16536" fill-rule="nonzero"></path><path fill="#000000" fill-opacity="0.0" d="m592.68506 173.55905l13.196838 37.16536" fill-rule="nonzero"></path><path stroke="#000000" stroke-width="2.0" stroke-linejoin="round" stroke-linecap="butt" d="m592.68506 173.55905l13.196838 37.16536" fill-rule="nonzero"></path><path fill="#000000" fill-opacity="0.0" d="m592.68506 173.55905l55.02362 37.16536" fill-rule="nonzero"></path><path stroke="#000000" stroke-width="2.0" stroke-linejoin="round" stroke-linecap="butt" d="m592.68506 173.55905l55.02362 37.16536" fill-rule="nonzero"></path><path fill="#cfe2f3" d="m772.4278 94.52756l0 0c0 -7.7058945 6.246887 -13.952751 13.952759 -13.952751l0 0c3.7005005 0 7.2494507 1.4700165 9.866089 4.0866623c2.6166992 2.6166534 4.08667 6.1655884 4.08667 9.866089l0 0c0 7.7058945 -6.246826 13.952759 -13.952759 13.952759l0 0c-7.7058716 0 -13.952759 -6.2468643 -13.952759 -13.952759z" fill-rule="nonzero"></path><path stroke="#000000" stroke-width="2.0" stroke-linejoin="round" stroke-linecap="butt" d="m772.4278 94.52756l0 0c0 -7.7058945 6.246887 -13.952751 13.952759 -13.952751l0 0c3.7005005 0 7.2494507 1.4700165 9.866089 4.0866623c2.6166992 2.6166534 4.08667 6.1655884 4.08667 9.866089l0 0c0 7.7058945 -6.246826 13.952759 -13.952759 13.952759l0 0c-7.7058716 0 -13.952759 -6.2468643 -13.952759 -13.952759z" fill-rule="nonzero"></path><path fill="#cfe2f3" d="m746.0971 159.6063l0 0c0 -7.705887 6.246887 -13.952744 13.952759 -13.952744l0 0c3.7005005 0 7.2494507 1.4700165 9.866089 4.0866547c2.6166382 2.6166534 4.08667 6.1655884 4.08667 9.866089l0 0c0 7.705902 -6.246887 13.952759 -13.952759 13.952759l0 0c-7.7058716 0 -13.952759 -6.2468567 -13.952759 -13.952759z" fill-rule="nonzero"></path><path stroke="#000000" stroke-width="2.0" stroke-linejoin="round" stroke-linecap="butt" d="m746.0971 159.6063l0 0c0 -7.705887 6.246887 -13.952744 13.952759 -13.952744l0 0c3.7005005 0 7.2494507 1.4700165 9.866089 4.0866547c2.6166382 2.6166534 4.08667 6.1655884 4.08667 9.866089l0 0c0 7.705902 -6.246887 13.952759 -13.952759 13.952759l0 0c-7.7058716 0 -13.952759 -6.2468567 -13.952759 -13.952759z" fill-rule="nonzero"></path><path fill="#cfe2f3" d="m795.1575 159.6063l0 0c0 -7.705887 6.246887 -13.952744 13.952759 -13.952744l0 0c3.7005005 0 7.2494507 1.4700165 9.866089 4.0866547c2.6166382 2.6166534 4.08667 6.1655884 4.08667 9.866089l0 0c0 7.705902 -6.246887 13.952759 -13.952759 13.952759l0 0c-7.7058716 0 -13.952759 -6.2468567 -13.952759 -13.952759z" fill-rule="nonzero"></path><path stroke="#000000" stroke-width="2.0" stroke-linejoin="round" stroke-linecap="butt" d="m795.1575 159.6063l0 0c0 -7.705887 6.246887 -13.952744 13.952759 -13.952744l0 0c3.7005005 0 7.2494507 1.4700165 9.866089 4.0866547c2.6166382 2.6166534 4.08667 6.1655884 4.08667 9.866089l0 0c0 7.705902 -6.246887 13.952759 -13.952759 13.952759l0 0c-7.7058716 0 -13.952759 -6.2468567 -13.952759 -13.952759z" fill-rule="nonzero"></path><path fill="#cfe2f3" d="m717.42126 224.68504l0 0c0 -7.705902 6.246887 -13.952759 13.952759 -13.952759l0 0c3.7005005 0 7.2494507 1.4700165 9.866089 4.08667c2.6166382 2.6166534 4.08667 6.1655884 4.08667 9.866089l0 0c0 7.705887 -6.246887 13.952759 -13.952759 13.952759l0 0c-7.7058716 0 -13.952759 -6.246872 -13.952759 -13.952759z" fill-rule="nonzero"></path><path stroke="#000000" stroke-width="2.0" stroke-linejoin="round" stroke-linecap="butt" d="m717.42126 224.68504l0 0c0 -7.705902 6.246887 -13.952759 13.952759 -13.952759l0 0c3.7005005 0 7.2494507 1.4700165 9.866089 4.08667c2.6166382 2.6166534 4.08667 6.1655884 4.08667 9.866089l0 0c0 7.705887 -6.246887 13.952759 -13.952759 13.952759l0 0c-7.7058716 0 -13.952759 -6.246872 -13.952759 -13.952759z" fill-rule="nonzero"></path><path fill="#cfe2f3" d="m766.50397 224.68504l0 0c0 -7.705902 6.246826 -13.952759 13.952698 -13.952759l0 0c3.7005005 0 7.2494507 1.4700165 9.866089 4.08667c2.6166992 2.6166534 4.08667 6.1655884 4.08667 9.866089l0 0c0 7.705887 -6.246826 13.952759 -13.952759 13.952759l0 0c-7.7058716 0 -13.952698 -6.246872 -13.952698 -13.952759z" fill-rule="nonzero"></path><path stroke="#000000" stroke-width="2.0" stroke-linejoin="round" stroke-linecap="butt" d="m766.50397 224.68504l0 0c0 -7.705902 6.246826 -13.952759 13.952698 -13.952759l0 0c3.7005005 0 7.2494507 1.4700165 9.866089 4.08667c2.6166992 2.6166534 4.08667 6.1655884 4.08667 9.866089l0 0c0 7.705887 -6.246826 13.952759 -13.952759 13.952759l0 0c-7.7058716 0 -13.952698 -6.246872 -13.952698 -13.952759z" fill-rule="nonzero"></path><path fill="#cfe2f3" d="m808.3399 224.68504l0 0c0 -7.705902 6.246826 -13.952759 13.952759 -13.952759l0 0c3.7005005 0 7.2494507 1.4700165 9.866089 4.08667c2.6166382 2.6166534 4.08667 6.1655884 4.08667 9.866089l0 0c0 7.705887 -6.246887 13.952759 -13.952759 13.952759l0 0c-7.7059326 0 -13.952759 -6.246872 -13.952759 -13.952759z" fill-rule="nonzero"></path><path stroke="#000000" stroke-width="2.0" stroke-linejoin="round" stroke-linecap="butt" d="m808.3399 224.68504l0 0c0 -7.705902 6.246826 -13.952759 13.952759 -13.952759l0 0c3.7005005 0 7.2494507 1.4700165 9.866089 4.08667c2.6166382 2.6166534 4.08667 6.1655884 4.08667 9.866089l0 0c0 7.705887 -6.246887 13.952759 -13.952759 13.952759l0 0c-7.7059326 0 -13.952759 -6.246872 -13.952759 -13.952759z" fill-rule="nonzero"></path><path fill="#cfe2f3" d="m844.21655 159.6063l0 0c0 -7.705887 6.246826 -13.952744 13.952759 -13.952744l0 0c3.7005005 0 7.2493896 1.4700165 9.866089 4.0866547c2.6166382 2.6166534 4.08667 6.1655884 4.08667 9.866089l0 0c0 7.705902 -6.246887 13.952759 -13.952759 13.952759l0 0c-7.7059326 0 -13.952759 -6.2468567 -13.952759 -13.952759z" fill-rule="nonzero"></path><path stroke="#000000" stroke-width="2.0" stroke-linejoin="round" stroke-linecap="butt" d="m844.21655 159.6063l0 0c0 -7.705887 6.246826 -13.952744 13.952759 -13.952744l0 0c3.7005005 0 7.2493896 1.4700165 9.866089 4.0866547c2.6166382 2.6166534 4.08667 6.1655884 4.08667 9.866089l0 0c0 7.705902 -6.246887 13.952759 -13.952759 13.952759l0 0c-7.7059326 0 -13.952759 -6.2468567 -13.952759 -13.952759z" fill-rule="nonzero"></path><path fill="#000000" fill-opacity="0.0" d="m786.38055 108.480316l-26.330688 37.16536" fill-rule="nonzero"></path><path stroke="#000000" stroke-width="2.0" stroke-linejoin="round" stroke-linecap="butt" d="m786.38055 108.480316l-26.330688 37.16536" fill-rule="nonzero"></path><path fill="#000000" fill-opacity="0.0" d="m760.04987 173.55905l-28.661438 37.16536" fill-rule="nonzero"></path><path stroke="#000000" stroke-width="2.0" stroke-linejoin="round" stroke-linecap="butt" d="m760.04987 173.55905l-28.661438 37.16536" fill-rule="nonzero"></path><path fill="#000000" fill-opacity="0.0" d="m786.38055 108.480316l22.740173 37.16536" fill-rule="nonzero"></path><path stroke="#000000" stroke-width="2.0" stroke-linejoin="round" stroke-linecap="butt" d="m786.38055 108.480316l22.740173 37.16536" fill-rule="nonzero"></path><path fill="#000000" fill-opacity="0.0" d="m760.04987 173.55905l20.409424 37.16536" fill-rule="nonzero"></path><path stroke="#000000" stroke-width="2.0" stroke-linejoin="round" stroke-linecap="butt" d="m760.04987 173.55905l20.409424 37.16536" fill-rule="nonzero"></path><path fill="#000000" fill-opacity="0.0" d="m809.1102 173.55905l13.196838 37.16536" fill-rule="nonzero"></path><path stroke="#000000" stroke-width="2.0" stroke-linejoin="round" stroke-linecap="butt" d="m809.1102 173.55905l13.196838 37.16536" fill-rule="nonzero"></path><path fill="#000000" fill-opacity="0.0" d="m786.38055 108.480316l71.77954 37.16536" fill-rule="nonzero"></path><path stroke="#000000" stroke-width="2.0" stroke-linejoin="round" stroke-linecap="butt" d="m786.38055 108.480316l71.77954 37.16536" fill-rule="nonzero"></path><path fill="#000000" fill-opacity="0.0" d="m569.9554 80.57481l0 -25.000004l216.44092 0l0 25.062992" fill-rule="nonzero"></path><path stroke="#6d9eeb" stroke-width="2.0" stroke-linejoin="round" stroke-linecap="butt" d="m569.9554 80.57481l0 -25.000004l216.44092 0l0 25.062992" fill-rule="nonzero"></path><path fill="#000000" fill-opacity="0.0" d="m543.6247 145.65355l0 -25.000008l216.44092 0l0 25.062996" fill-rule="nonzero"></path><path stroke="#6d9eeb" stroke-width="2.0" stroke-linejoin="round" stroke-linecap="butt" d="m543.6247 145.65355l0 -25.000008l216.44092 0l0 25.062996" fill-rule="nonzero"></path><path fill="#000000" fill-opacity="0.0" d="m514.9488 238.6378l0 13.858261l216.44098 0l0 -13.795273" fill-rule="nonzero"></path><path stroke="#6d9eeb" stroke-width="2.0" stroke-linejoin="round" stroke-linecap="butt" d="m514.9488 238.6378l0 13.858261l216.44098 0l0 -13.795273" fill-rule="nonzero"></path><path fill="#000000" fill-opacity="0.0" d="m592.68506 145.65355l0 -17.750664l216.44092 0l0 17.813652" fill-rule="nonzero"></path><path stroke="#6d9eeb" stroke-width="2.0" stroke-linejoin="round" stroke-linecap="butt" d="m592.68506 145.65355l0 -17.750664l216.44092 0l0 17.813652" fill-rule="nonzero"></path><path fill="#000000" fill-opacity="0.0" d="m564.0315 238.6378l0 24.999985l258.2677 0l0 -24.936996" fill-rule="nonzero"></path><path stroke="#6d9eeb" stroke-width="2.0" stroke-linejoin="round" stroke-linecap="butt" d="m564.0315 238.6378l0 24.999985l258.2677 0l0 -24.936996" fill-rule="nonzero"></path><path fill="#cfe2f3" d="m413.07874 224.68504l0 0c0 -7.705902 6.2468567 -13.952759 13.952759 -13.952759l0 0c3.7005005 0 7.2494507 1.4700165 9.866089 4.08667c2.6166382 2.6166534 4.08667 6.1655884 4.08667 9.866089l0 0c0 7.705887 -6.2468567 13.952759 -13.952759 13.952759l0 0c-7.705902 0 -13.952759 -6.246872 -13.952759 -13.952759z" fill-rule="nonzero"></path><path stroke="#000000" stroke-width="2.0" stroke-linejoin="round" stroke-linecap="butt" d="m413.07874 224.68504l0 0c0 -7.705902 6.2468567 -13.952759 13.952759 -13.952759l0 0c3.7005005 0 7.2494507 1.4700165 9.866089 4.08667c2.6166382 2.6166534 4.08667 6.1655884 4.08667 9.866089l0 0c0 7.705887 -6.2468567 13.952759 -13.952759 13.952759l0 0c-7.705902 0 -13.952759 -6.246872 -13.952759 -13.952759z" fill-rule="nonzero"></path><path fill="#cfe2f3" d="m850.1772 224.68504l0 0c0 -7.705902 6.246826 -13.952759 13.952759 -13.952759l0 0c3.7005005 0 7.2493896 1.4700165 9.866089 4.08667c2.6166382 2.6166534 4.08667 6.1655884 4.08667 9.866089l0 0c0 7.705887 -6.246887 13.952759 -13.952759 13.952759l0 0c-7.7059326 0 -13.952759 -6.246872 -13.952759 -13.952759z" fill-rule="nonzero"></path><path stroke="#000000" stroke-width="2.0" stroke-linejoin="round" stroke-linecap="butt" d="m850.1772 224.68504l0 0c0 -7.705902 6.246826 -13.952759 13.952759 -13.952759l0 0c3.7005005 0 7.2493896 1.4700165 9.866089 4.08667c2.6166382 2.6166534 4.08667 6.1655884 4.08667 9.866089l0 0c0 7.705887 -6.246887 13.952759 -13.952759 13.952759l0 0c-7.7059326 0 -13.952759 -6.246872 -13.952759 -13.952759z" fill-rule="nonzero"></path><path fill="#000000" fill-opacity="0.0" d="m416.8281 173.55905l10.204712 37.16536" fill-rule="nonzero"></path><path stroke="#000000" stroke-width="2.0" stroke-linejoin="round" stroke-linecap="butt" d="m416.8281 173.55905l10.204712 37.16536" fill-rule="nonzero"></path><path fill="#000000" fill-opacity="0.0" d="m858.1693 173.55905l5.952759 37.16536" fill-rule="nonzero"></path><path stroke="#000000" stroke-width="2.0" stroke-linejoin="round" stroke-linecap="butt" d="m858.1693 173.55905l5.952759 37.16536" fill-rule="nonzero"></path><path fill="#000000" fill-opacity="0.0" d="m610.8425 318.65353l247.33856 0l0 49.606323l-247.33856 0z" fill-rule="nonzero"></path><path fill="#000000" d="m625.2019 345.57355l-5.28125 -13.59375l1.953125 0l3.53125 9.875q0.4375 1.1875 0.71875 2.21875q0.3125 -1.109375 0.734375 -2.21875l3.671875 -9.875l1.84375 0l-5.328125 13.59375l-1.84375 0zm8.3497925 -11.6875l0 -1.90625l1.671875 0l0 1.90625l-1.671875 0zm0 11.6875l0 -9.859375l1.671875 0l0 9.859375l-1.671875 0zm4.1135864 0l0 -9.859375l1.5 0l0 1.5q0.578125 -1.046875 1.0625 -1.375q0.484375 -0.34375 1.078125 -0.34375q0.84375 0 1.71875 0.546875l-0.578125 1.546875q-0.609375 -0.359375 -1.234375 -0.359375q-0.546875 0 -0.984375 0.328125q-0.421875 0.328125 -0.609375 0.90625q-0.28125 0.890625 -0.28125 1.953125l0 5.15625l-1.671875 0zm9.8845825 -1.5l0.234375 1.484375q-0.703125 0.140625 -1.265625 0.140625q-0.90625 0 -1.40625 -0.28125q-0.5 -0.296875 -0.703125 -0.75q-0.203125 -0.46875 -0.203125 -1.984375l0 -5.65625l-1.234375 0l0 -1.3125l1.234375 0l0 -2.4375l1.65625 -1.0l0 3.4375l1.6875 0l0 1.3125l-1.6875 0l0 5.75q0 0.71875 0.078125 0.921875q0.09375 0.203125 0.296875 0.328125q0.203125 0.125 0.578125 0.125q0.265625 0 0.734375 -0.078125zm7.9801636 1.5l0 -1.453125q-1.140625 1.671875 -3.125 1.671875q-0.859375 0 -1.625 -0.328125q-0.75 -0.34375 -1.125 -0.84375q-0.359375 -0.5 -0.515625 -1.234375q-0.09375 -0.5 -0.09375 -1.5625l0 -6.109375l1.671875 0l0 5.46875q0 1.3125 0.09375 1.765625q0.15625 0.65625 0.671875 1.03125q0.515625 0.375 1.265625 0.375q0.75 0 1.40625 -0.375q0.65625 -0.390625 0.921875 -1.046875q0.28125 -0.671875 0.28125 -1.9375l0 -5.28125l1.671875 0l0 9.859375l-1.5 0zm10.360107 -1.21875q-0.9375 0.796875 -1.796875 1.125q-0.859375 0.3125 -1.84375 0.3125q-1.609375 0 -2.484375 -0.78125q-0.875 -0.796875 -0.875 -2.03125q0 -0.734375 0.328125 -1.328125q0.328125 -0.59375 0.859375 -0.953125q0.53125 -0.359375 1.203125 -0.546875q0.5 -0.140625 1.484375 -0.25q2.03125 -0.25 2.984375 -0.578125q0 -0.34375 0 -0.4375q0 -1.015625 -0.46875 -1.4375q-0.640625 -0.5625 -1.90625 -0.5625q-1.171875 0 -1.734375 0.40625q-0.5625 0.40625 -0.828125 1.46875l-1.640625 -0.234375q0.234375 -1.046875 0.734375 -1.6875q0.515625 -0.640625 1.46875 -0.984375q0.96875 -0.359375 2.25 -0.359375q1.265625 0 2.046875 0.296875q0.78125 0.296875 1.15625 0.75q0.375 0.453125 0.515625 1.140625q0.09375 0.421875 0.09375 1.53125l0 2.234375q0 2.328125 0.09375 2.953125q0.109375 0.609375 0.4375 1.171875l-1.75 0q-0.265625 -0.515625 -0.328125 -1.21875zm-0.140625 -3.71875q-0.90625 0.359375 -2.734375 0.625q-1.03125 0.140625 -1.453125 0.328125q-0.421875 0.1875 -0.65625 0.546875q-0.234375 0.359375 -0.234375 0.796875q0 0.671875 0.5 1.125q0.515625 0.4375 1.484375 0.4375q0.96875 0 1.71875 -0.421875q0.75 -0.4375 1.109375 -1.15625q0.265625 -0.578125 0.265625 -1.671875l0 -0.609375zm4.0475464 4.9375l0 -13.59375l1.671875 0l0 13.59375l-1.671875 0zm9.578125 0l0 -13.59375l4.6875 0q1.578125 0 2.421875 0.1875q1.15625 0.265625 1.984375 0.96875q1.078125 0.921875 1.609375 2.34375q0.53125 1.40625 0.53125 3.21875q0 1.546875 -0.359375 2.75q-0.359375 1.1875 -0.921875 1.984375q-0.5625 0.78125 -1.234375 1.234375q-0.671875 0.4375 -1.625 0.671875q-0.953125 0.234375 -2.1875 0.234375l-4.90625 0zm1.796875 -1.609375l2.90625 0q1.34375 0 2.109375 -0.25q0.765625 -0.25 1.21875 -0.703125q0.640625 -0.640625 1.0 -1.71875q0.359375 -1.078125 0.359375 -2.625q0 -2.125 -0.703125 -3.265625q-0.703125 -1.15625 -1.703125 -1.546875q-0.71875 -0.28125 -2.328125 -0.28125l-2.859375 0l0 10.390625zm11.129211 -5.015625q0 -3.390625 1.8125 -5.296875q1.828125 -1.921875 4.703125 -1.921875q1.875 0 3.390625 0.90625q1.515625 0.890625 2.296875 2.5q0.796875 1.609375 0.796875 3.65625q0 2.0625 -0.84375 3.703125q-0.828125 1.625 -2.359375 2.46875q-1.53125 0.84375 -3.296875 0.84375q-1.921875 0 -3.4375 -0.921875q-1.5 -0.9375 -2.28125 -2.53125q-0.78125 -1.609375 -0.78125 -3.40625zm1.859375 0.03125q0 2.453125 1.3125 3.875q1.328125 1.40625 3.3125 1.40625q2.03125 0 3.34375 -1.421875q1.3125 -1.4375 1.3125 -4.0625q0 -1.65625 -0.5625 -2.890625q-0.546875 -1.234375 -1.640625 -1.921875q-1.078125 -0.6875 -2.421875 -0.6875q-1.90625 0 -3.28125 1.3125q-1.375 1.3125 -1.375 4.390625zm13.136414 6.59375l0 -13.59375l2.71875 0l3.21875 9.625q0.4375 1.34375 0.640625 2.015625q0.234375 -0.75 0.734375 -2.1875l3.25 -9.453125l2.421875 0l0 13.59375l-1.734375 0l0 -11.390625l-3.953125 11.390625l-1.625 0l-3.9375 -11.578125l0 11.578125l-1.734375 0zm24.224121 -1.5l0.234375 1.484375q-0.703125 0.140625 -1.265625 0.140625q-0.90625 0 -1.40625 -0.28125q-0.5 -0.296875 -0.703125 -0.75q-0.203125 -0.46875 -0.203125 -1.984375l0 -5.65625l-1.234375 0l0 -1.3125l1.234375 0l0 -2.4375l1.65625 -1.0l0 3.4375l1.6875 0l0 1.3125l-1.6875 0l0 5.75q0 0.71875 0.078125 0.921875q0.09375 0.203125 0.296875 0.328125q0.203125 0.125 0.578125 0.125q0.265625 0 0.734375 -0.078125zm1.5114136 1.5l0 -9.859375l1.5 0l0 1.5q0.578125 -1.046875 1.0625 -1.375q0.484375 -0.34375 1.078125 -0.34375q0.84375 0 1.71875 0.546875l-0.578125 1.546875q-0.609375 -0.359375 -1.234375 -0.359375q-0.546875 0 -0.984375 0.328125q-0.421875 0.328125 -0.609375 0.90625q-0.28125 0.890625 -0.28125 1.953125l0 5.15625l-1.671875 0zm12.9783325 -3.171875l1.71875 0.21875q-0.40625 1.5 -1.515625 2.34375q-1.09375 0.828125 -2.8125 0.828125q-2.15625 0 -3.421875 -1.328125q-1.265625 -1.328125 -1.265625 -3.734375q0 -2.484375 1.265625 -3.859375q1.28125 -1.375 3.328125 -1.375q1.984375 0 3.234375 1.34375q1.25 1.34375 1.25 3.796875q0 0.140625 -0.015625 0.4375l-7.34375 0q0.09375 1.625 0.921875 2.484375q0.828125 0.859375 2.0625 0.859375q0.90625 0 1.546875 -0.46875q0.65625 -0.484375 1.046875 -1.546875zm-5.484375 -2.703125l5.5 0q-0.109375 -1.234375 -0.625 -1.859375q-0.796875 -0.96875 -2.078125 -0.96875q-1.140625 0 -1.9375 0.78125q-0.78125 0.765625 -0.859375 2.046875zm15.860107 2.703125l1.71875 0.21875q-0.40625 1.5 -1.515625 2.34375q-1.09375 0.828125 -2.8125 0.828125q-2.15625 0 -3.421875 -1.328125q-1.265625 -1.328125 -1.265625 -3.734375q0 -2.484375 1.265625 -3.859375q1.28125 -1.375 3.328125 -1.375q1.984375 0 3.234375 1.34375q1.25 1.34375 1.25 3.796875q0 0.140625 -0.015625 0.4375l-7.34375 0q0.09375 1.625 0.921875 2.484375q0.828125 0.859375 2.0625 0.859375q0.90625 0 1.546875 -0.46875q0.65625 -0.484375 1.046875 -1.546875zm-5.484375 -2.703125l5.5 0q-0.109375 -1.234375 -0.625 -1.859375q-0.796875 -0.96875 -2.078125 -0.96875q-1.140625 0 -1.9375 0.78125q-0.78125 0.765625 -0.859375 2.046875zm20.684021 5.875l0 -1.25q-0.9375 1.46875 -2.75 1.46875q-1.171875 0 -2.171875 -0.640625q-0.984375 -0.65625 -1.53125 -1.8125q-0.53125 -1.171875 -0.53125 -2.6875q0 -1.46875 0.484375 -2.671875q0.5 -1.203125 1.46875 -1.84375q0.984375 -0.640625 2.203125 -0.640625q0.890625 0 1.578125 0.375q0.703125 0.375 1.140625 0.984375l0 -4.875l1.65625 0l0 13.59375l-1.546875 0zm-5.28125 -4.921875q0 1.890625 0.796875 2.828125q0.8125 0.9375 1.890625 0.9375q1.09375 0 1.859375 -0.890625q0.765625 -0.890625 0.765625 -2.734375q0 -2.015625 -0.78125 -2.953125q-0.78125 -0.953125 -1.921875 -0.953125q-1.109375 0 -1.859375 0.90625q-0.75 0.90625 -0.75 2.859375zm9.281921 -6.765625l0 -1.90625l1.671875 0l0 1.90625l-1.671875 0zm0 11.6875l0 -9.859375l1.671875 0l0 9.859375l-1.671875 0zm4.5354614 0l0 -8.546875l-1.484375 0l0 -1.3125l1.484375 0l0 -1.046875q0 -0.984375 0.171875 -1.46875q0.234375 -0.65625 0.84375 -1.046875q0.609375 -0.40625 1.703125 -0.40625q0.703125 0 1.5625 0.15625l-0.25 1.46875q-0.515625 -0.09375 -0.984375 -0.09375q-0.765625 0 -1.078125 0.328125q-0.3125 0.3125 -0.3125 1.203125l0 0.90625l1.921875 0l0 1.3125l-1.921875 0l0 8.546875l-1.65625 0zm5.1832886 0l0 -8.546875l-1.484375 0l0 -1.3125l1.484375 0l0 -1.046875q0 -0.984375 0.171875 -1.46875q0.234375 -0.65625 0.84375 -1.046875q0.609375 -0.40625 1.703125 -0.40625q0.703125 0 1.5625 0.15625l-0.25 1.46875q-0.515625 -0.09375 -0.984375 -0.09375q-0.765625 0 -1.078125 0.328125q-0.3125 0.3125 -0.3125 1.203125l0 0.90625l1.921875 0l0 1.3125l-1.921875 0l0 8.546875l-1.65625 0z" fill-rule="nonzero"></path><path fill="#000000" fill-opacity="0.0" d="m194.92126 318.65353l155.65353 0l0 49.606323l-155.65353 0z" fill-rule="nonzero"></path><path fill="#000000" d="m208.82751 344.07355l0.234375 1.484375q-0.703125 0.140625 -1.265625 0.140625q-0.90625 0 -1.40625 -0.28125q-0.5 -0.296875 -0.703125 -0.75q-0.203125 -0.46875 -0.203125 -1.984375l0 -5.65625l-1.234375 0l0 -1.3125l1.234375 0l0 -2.4375l1.65625 -1.0l0 3.4375l1.6875 0l0 1.3125l-1.6875 0l0 5.75q0 0.71875 0.078125 0.921875q0.09375 0.203125 0.296875 0.328125q0.203125 0.125 0.578125 0.125q0.265625 0 0.734375 -0.078125zm1.5114288 1.5l0 -9.859375l1.5 0l0 1.5q0.578125 -1.046875 1.0625 -1.375q0.484375 -0.34375 1.078125 -0.34375q0.84375 0 1.71875 0.546875l-0.578125 1.546875q-0.609375 -0.359375 -1.234375 -0.359375q-0.546875 0 -0.984375 0.328125q-0.421875 0.328125 -0.609375 0.90625q-0.28125 0.890625 -0.28125 1.953125l0 5.15625l-1.671875 0zm12.978302 -3.171875l1.71875 0.21875q-0.40625 1.5 -1.515625 2.34375q-1.09375 0.828125 -2.8125 0.828125q-2.15625 0 -3.421875 -1.328125q-1.265625 -1.328125 -1.265625 -3.734375q0 -2.484375 1.265625 -3.859375q1.28125 -1.375 3.328125 -1.375q1.984375 0 3.234375 1.34375q1.25 1.34375 1.25 3.796875q0 0.140625 -0.015625 0.4375l-7.34375 0q0.09375 1.625 0.921875 2.484375q0.828125 0.859375 2.0625 0.859375q0.90625 0 1.546875 -0.46875q0.65625 -0.484375 1.046875 -1.546875zm-5.484375 -2.703125l5.5 0q-0.109375 -1.234375 -0.625 -1.859375q-0.796875 -0.96875 -2.078125 -0.96875q-1.140625 0 -1.9375 0.78125q-0.78125 0.765625 -0.859375 2.046875zm15.860092 2.703125l1.71875 0.21875q-0.40625 1.5 -1.515625 2.34375q-1.09375 0.828125 -2.8125 0.828125q-2.15625 0 -3.421875 -1.328125q-1.265625 -1.328125 -1.265625 -3.734375q0 -2.484375 1.265625 -3.859375q1.28125 -1.375 3.328125 -1.375q1.984375 0 3.234375 1.34375q1.25 1.34375 1.25 3.796875q0 0.140625 -0.015625 0.4375l-7.34375 0q0.09375 1.625 0.921875 2.484375q0.828125 0.859375 2.0625 0.859375q0.90625 0 1.546875 -0.46875q0.65625 -0.484375 1.046875 -1.546875zm-5.484375 -2.703125l5.5 0q-0.109375 -1.234375 -0.625 -1.859375q-0.796875 -0.96875 -2.078125 -0.96875q-1.140625 0 -1.9375 0.78125q-0.78125 0.765625 -0.859375 2.046875zm20.684021 5.875l0 -1.25q-0.9375 1.46875 -2.75 1.46875q-1.171875 0 -2.171875 -0.640625q-0.984375 -0.65625 -1.53125 -1.8125q-0.53125 -1.171875 -0.53125 -2.6875q0 -1.46875 0.484375 -2.671875q0.5 -1.203125 1.46875 -1.84375q0.984375 -0.640625 2.203125 -0.640625q0.890625 0 1.578125 0.375q0.703125 0.375 1.140625 0.984375l0 -4.875l1.65625 0l0 13.59375l-1.546875 0zm-5.28125 -4.921875q0 1.890625 0.796875 2.828125q0.8125 0.9375 1.890625 0.9375q1.09375 0 1.859375 -0.890625q0.765625 -0.890625 0.765625 -2.734375q0 -2.015625 -0.78125 -2.953125q-0.78125 -0.953125 -1.921875 -0.953125q-1.109375 0 -1.859375 0.90625q-0.75 0.90625 -0.75 2.859375zm9.281967 -6.765625l0 -1.90625l1.671875 0l0 1.90625l-1.671875 0zm0 11.6875l0 -9.859375l1.671875 0l0 9.859375l-1.671875 0zm4.535446 0l0 -8.546875l-1.484375 0l0 -1.3125l1.484375 0l0 -1.046875q0 -0.984375 0.171875 -1.46875q0.234375 -0.65625 0.84375 -1.046875q0.609375 -0.40625 1.703125 -0.40625q0.703125 0 1.5625 0.15625l-0.25 1.46875q-0.515625 -0.09375 -0.984375 -0.09375q-0.765625 0 -1.078125 0.328125q-0.3125 0.3125 -0.3125 1.203125l0 0.90625l1.921875 0l0 1.3125l-1.921875 0l0 8.546875l-1.65625 0zm5.1832886 0l0 -8.546875l-1.484375 0l0 -1.3125l1.484375 0l0 -1.046875q0 -0.984375 0.171875 -1.46875q0.234375 -0.65625 0.84375 -1.046875q0.609375 -0.40625 1.703125 -0.40625q0.703125 0 1.5625 0.15625l-0.25 1.46875q-0.515625 -0.09375 -0.984375 -0.09375q-0.765625 0 -1.078125 0.328125q-0.3125 0.3125 -0.3125 1.203125l0 0.90625l1.921875 0l0 1.3125l-1.921875 0l0 8.546875l-1.65625 0z" fill-rule="nonzero"></path></g></svg>

